<?xml version="1.0" encoding="utf-8" standalone="no"?>
<!DOCTYPE svg PUBLIC "-//W3C//DTD SVG 1.1//EN"
  "http://www.w3.org/Graphics/SVG/1.1/DTD/svg11.dtd">
<svg xmlns:xlink="http://www.w3.org/1999/xlink" width="460.8pt" height="345.6pt" viewBox="0 0 460.8 345.6" xmlns="http://www.w3.org/2000/svg" version="1.1">
 <metadata>
  <rdf:RDF xmlns:dc="http://purl.org/dc/elements/1.1/" xmlns:cc="http://creativecommons.org/ns#" xmlns:rdf="http://www.w3.org/1999/02/22-rdf-syntax-ns#">
   <cc:Work>
    <dc:type rdf:resource="http://purl.org/dc/dcmitype/StillImage"/>
    <dc:date>2025-09-13T20:52:57.312482</dc:date>
    <dc:format>image/svg+xml</dc:format>
    <dc:creator>
     <cc:Agent>
      <dc:title>Matplotlib v3.10.6, https://matplotlib.org/</dc:title>
     </cc:Agent>
    </dc:creator>
   </cc:Work>
  </rdf:RDF>
 </metadata>
 <defs>
  <style type="text/css">*{stroke-linejoin: round; stroke-linecap: butt}</style>
 </defs>
 <g id="figure_1">
  <g id="patch_1">
   <path d="M 0 345.6 
L 460.8 345.6 
L 460.8 0 
L 0 0 
z
" style="fill: #ffffff"/>
  </g>
  <g id="patch_2">
   <path d="M 0 345.6 
L 460.8 345.6 
L 460.8 0 
L 0 0 
L 0 345.6 
z
" style="fill: none; stroke: #ffffff; stroke-linejoin: miter"/>
  </g>
  <g id="axes_1">
   <g id="patch_3">
    <path d="M 42.041375 312.823375 
L 370.585125 312.823375 
L 370.585125 21.7395 
L 42.041375 21.7395 
z
" style="fill: #ebebeb"/>
   </g>
   <g id="matplotlib.axis_1">
    <g id="xtick_1">
     <g id="line2d_1">
      <path d="M 52.826902 312.823375 
L 52.826902 21.7395 
" clip-path="url(#p6e7ccc3b15)" style="fill: none; stroke: #ffffff; stroke-linecap: square"/>
     </g>
     <g id="line2d_2">
      <path d="M 52.826902 312.823375 
" style="fill: none; stroke: #333333; stroke-width: 1.5; stroke-linecap: square"/>
      <defs>
       <path id="mafcb1de9f1" d="M 0 0 
L 0 2.75 
" style="stroke: #333333"/>
      </defs>
      <g>
       <use xlink:href="#mafcb1de9f1" x="52.826902" y="312.823375" style="fill: #333333; stroke: #333333"/>
      </g>
     </g>
     <g id="text_1">
      <!-- 0 -->
      <g style="fill: #4d4d4d" transform="translate(50.38009 324.086) scale(0.088 -0.088)">
       <defs>
        <path id="Helvetica-30" d="M 1731 4475 
Q 2600 4475 2988 3759 
Q 3288 3206 3288 2244 
Q 3288 1331 3016 734 
Q 2622 -122 1728 -122 
Q 922 -122 528 578 
Q 200 1163 200 2147 
Q 200 2909 397 3456 
Q 766 4475 1731 4475 
z
M 1725 391 
Q 2163 391 2422 778 
Q 2681 1166 2681 2222 
Q 2681 2984 2493 3476 
Q 2306 3969 1766 3969 
Q 1269 3969 1039 3501 
Q 809 3034 809 2125 
Q 809 1441 956 1025 
Q 1181 391 1725 391 
z
" transform="scale(0.015625)"/>
       </defs>
       <use xlink:href="#Helvetica-30"/>
      </g>
     </g>
    </g>
    <g id="xtick_2">
     <g id="line2d_3">
      <path d="M 135.792496 312.823375 
L 135.792496 21.7395 
" clip-path="url(#p6e7ccc3b15)" style="fill: none; stroke: #ffffff; stroke-linecap: square"/>
     </g>
     <g id="line2d_4">
      <path d="M 135.792496 312.823375 
" style="fill: none; stroke: #333333; stroke-width: 1.5; stroke-linecap: square"/>
      <g>
       <use xlink:href="#mafcb1de9f1" x="135.792496" y="312.823375" style="fill: #333333; stroke: #333333"/>
      </g>
     </g>
     <g id="text_2">
      <!-- 20 -->
      <g style="fill: #4d4d4d" transform="translate(130.898871 324.086) scale(0.088 -0.088)">
       <defs>
        <path id="Helvetica-32" d="M 200 0 
Q 231 578 439 1006 
Q 647 1434 1250 1784 
L 1850 2131 
Q 2253 2366 2416 2531 
Q 2672 2791 2672 3125 
Q 2672 3516 2437 3745 
Q 2203 3975 1813 3975 
Q 1234 3975 1013 3538 
Q 894 3303 881 2888 
L 309 2888 
Q 319 3472 525 3841 
Q 891 4491 1816 4491 
Q 2584 4491 2939 4075 
Q 3294 3659 3294 3150 
Q 3294 2613 2916 2231 
Q 2697 2009 2131 1694 
L 1703 1456 
Q 1397 1288 1222 1134 
Q 909 863 828 531 
L 3272 531 
L 3272 0 
L 200 0 
z
" transform="scale(0.015625)"/>
       </defs>
       <use xlink:href="#Helvetica-32"/>
       <use xlink:href="#Helvetica-30" transform="translate(55.615234 0)"/>
      </g>
     </g>
    </g>
    <g id="xtick_3">
     <g id="line2d_5">
      <path d="M 218.758089 312.823375 
L 218.758089 21.7395 
" clip-path="url(#p6e7ccc3b15)" style="fill: none; stroke: #ffffff; stroke-linecap: square"/>
     </g>
     <g id="line2d_6">
      <path d="M 218.758089 312.823375 
" style="fill: none; stroke: #333333; stroke-width: 1.5; stroke-linecap: square"/>
      <g>
       <use xlink:href="#mafcb1de9f1" x="218.758089" y="312.823375" style="fill: #333333; stroke: #333333"/>
      </g>
     </g>
     <g id="text_3">
      <!-- 40 -->
      <g style="fill: #4d4d4d" transform="translate(213.864464 324.086) scale(0.088 -0.088)">
       <defs>
        <path id="Helvetica-34" d="M 2116 1584 
L 2116 3613 
L 681 1584 
L 2116 1584 
z
M 2125 0 
L 2125 1094 
L 163 1094 
L 163 1644 
L 2213 4488 
L 2688 4488 
L 2688 1584 
L 3347 1584 
L 3347 1094 
L 2688 1094 
L 2688 0 
L 2125 0 
z
" transform="scale(0.015625)"/>
       </defs>
       <use xlink:href="#Helvetica-34"/>
       <use xlink:href="#Helvetica-30" transform="translate(55.615234 0)"/>
      </g>
     </g>
    </g>
    <g id="xtick_4">
     <g id="line2d_7">
      <path d="M 301.723682 312.823375 
L 301.723682 21.7395 
" clip-path="url(#p6e7ccc3b15)" style="fill: none; stroke: #ffffff; stroke-linecap: square"/>
     </g>
     <g id="line2d_8">
      <path d="M 301.723682 312.823375 
" style="fill: none; stroke: #333333; stroke-width: 1.5; stroke-linecap: square"/>
      <g>
       <use xlink:href="#mafcb1de9f1" x="301.723682" y="312.823375" style="fill: #333333; stroke: #333333"/>
      </g>
     </g>
     <g id="text_4">
      <!-- 60 -->
      <g style="fill: #4d4d4d" transform="translate(296.830057 324.086) scale(0.088 -0.088)">
       <defs>
        <path id="Helvetica-36" d="M 1872 4494 
Q 2622 4494 2917 4105 
Q 3213 3716 3213 3303 
L 2656 3303 
Q 2606 3569 2497 3719 
Q 2294 4000 1881 4000 
Q 1409 4000 1131 3564 
Q 853 3128 822 2316 
Q 1016 2600 1309 2741 
Q 1578 2866 1909 2866 
Q 2472 2866 2890 2506 
Q 3309 2147 3309 1434 
Q 3309 825 2912 354 
Q 2516 -116 1781 -116 
Q 1153 -116 697 361 
Q 241 838 241 1966 
Q 241 2800 444 3381 
Q 834 4494 1872 4494 
z
M 1831 384 
Q 2275 384 2495 682 
Q 2716 981 2716 1388 
Q 2716 1731 2519 2042 
Q 2322 2353 1803 2353 
Q 1441 2353 1167 2112 
Q 894 1872 894 1388 
Q 894 963 1142 673 
Q 1391 384 1831 384 
z
" transform="scale(0.015625)"/>
       </defs>
       <use xlink:href="#Helvetica-36"/>
       <use xlink:href="#Helvetica-30" transform="translate(55.615234 0)"/>
      </g>
     </g>
    </g>
    <g id="xtick_5">
     <g id="line2d_9">
      <path d="M 94.309699 312.823375 
L 94.309699 21.7395 
" clip-path="url(#p6e7ccc3b15)" style="fill: none; stroke: #ffffff; stroke-width: 0.5; stroke-linecap: square"/>
     </g>
    </g>
    <g id="xtick_6">
     <g id="line2d_10">
      <path d="M 177.275292 312.823375 
L 177.275292 21.7395 
" clip-path="url(#p6e7ccc3b15)" style="fill: none; stroke: #ffffff; stroke-width: 0.5; stroke-linecap: square"/>
     </g>
    </g>
    <g id="xtick_7">
     <g id="line2d_11">
      <path d="M 260.240886 312.823375 
L 260.240886 21.7395 
" clip-path="url(#p6e7ccc3b15)" style="fill: none; stroke: #ffffff; stroke-width: 0.5; stroke-linecap: square"/>
     </g>
    </g>
    <g id="xtick_8">
     <g id="line2d_12">
      <path d="M 343.206479 312.823375 
L 343.206479 21.7395 
" clip-path="url(#p6e7ccc3b15)" style="fill: none; stroke: #ffffff; stroke-width: 0.5; stroke-linecap: square"/>
     </g>
    </g>
   </g>
   <g id="matplotlib.axis_2">
    <g id="ytick_1">
     <g id="line2d_13">
      <path d="M 42.041375 273.130119 
L 370.585125 273.130119 
" clip-path="url(#p6e7ccc3b15)" style="fill: none; stroke: #ffffff; stroke-linecap: square"/>
     </g>
     <g id="line2d_14">
      <path d="M 42.041375 273.130119 
" style="fill: none; stroke: #333333; stroke-width: 1.5; stroke-linecap: square"/>
      <defs>
       <path id="md1a3371348" d="M 0 0 
L -2.75 0 
" style="stroke: #333333"/>
      </defs>
      <g>
       <use xlink:href="#md1a3371348" x="42.041375" y="273.130119" style="fill: #333333; stroke: #333333"/>
      </g>
     </g>
     <g id="text_5">
      <!-- -200 -->
      <g style="fill: #4d4d4d" transform="translate(19.480375 276.286432) scale(0.088 -0.088)">
       <defs>
        <path id="Helvetica-2d" d="M 266 2072 
L 1834 2072 
L 1834 1494 
L 266 1494 
L 266 2072 
z
" transform="scale(0.015625)"/>
       </defs>
       <use xlink:href="#Helvetica-2d"/>
       <use xlink:href="#Helvetica-32" transform="translate(33.300781 0)"/>
       <use xlink:href="#Helvetica-30" transform="translate(88.916016 0)"/>
       <use xlink:href="#Helvetica-30" transform="translate(144.53125 0)"/>
      </g>
     </g>
    </g>
    <g id="ytick_2">
     <g id="line2d_15">
      <path d="M 42.041375 220.205778 
L 370.585125 220.205778 
" clip-path="url(#p6e7ccc3b15)" style="fill: none; stroke: #ffffff; stroke-linecap: square"/>
     </g>
     <g id="line2d_16">
      <path d="M 42.041375 220.205778 
" style="fill: none; stroke: #333333; stroke-width: 1.5; stroke-linecap: square"/>
      <g>
       <use xlink:href="#md1a3371348" x="42.041375" y="220.205778" style="fill: #333333; stroke: #333333"/>
      </g>
     </g>
     <g id="text_6">
      <!-- -100 -->
      <g style="fill: #4d4d4d" transform="translate(19.480375 223.362091) scale(0.088 -0.088)">
       <defs>
        <path id="Helvetica-31" d="M 613 3169 
L 613 3600 
Q 1222 3659 1462 3798 
Q 1703 3938 1822 4456 
L 2266 4456 
L 2266 0 
L 1666 0 
L 1666 3169 
L 613 3169 
z
" transform="scale(0.015625)"/>
       </defs>
       <use xlink:href="#Helvetica-2d"/>
       <use xlink:href="#Helvetica-31" transform="translate(33.300781 0)"/>
       <use xlink:href="#Helvetica-30" transform="translate(88.916016 0)"/>
       <use xlink:href="#Helvetica-30" transform="translate(144.53125 0)"/>
      </g>
     </g>
    </g>
    <g id="ytick_3">
     <g id="line2d_17">
      <path d="M 42.041375 167.281437 
L 370.585125 167.281437 
" clip-path="url(#p6e7ccc3b15)" style="fill: none; stroke: #ffffff; stroke-linecap: square"/>
     </g>
     <g id="line2d_18">
      <path d="M 42.041375 167.281437 
" style="fill: none; stroke: #333333; stroke-width: 1.5; stroke-linecap: square"/>
      <g>
       <use xlink:href="#md1a3371348" x="42.041375" y="167.281437" style="fill: #333333; stroke: #333333"/>
      </g>
     </g>
     <g id="text_7">
      <!-- 0 -->
      <g style="fill: #4d4d4d" transform="translate(32.19775 170.43775) scale(0.088 -0.088)">
       <use xlink:href="#Helvetica-30"/>
      </g>
     </g>
    </g>
    <g id="ytick_4">
     <g id="line2d_19">
      <path d="M 42.041375 114.357097 
L 370.585125 114.357097 
" clip-path="url(#p6e7ccc3b15)" style="fill: none; stroke: #ffffff; stroke-linecap: square"/>
     </g>
     <g id="line2d_20">
      <path d="M 42.041375 114.357097 
" style="fill: none; stroke: #333333; stroke-width: 1.5; stroke-linecap: square"/>
      <g>
       <use xlink:href="#md1a3371348" x="42.041375" y="114.357097" style="fill: #333333; stroke: #333333"/>
      </g>
     </g>
     <g id="text_8">
      <!-- 100 -->
      <g style="fill: #4d4d4d" transform="translate(22.4105 117.513409) scale(0.088 -0.088)">
       <use xlink:href="#Helvetica-31"/>
       <use xlink:href="#Helvetica-30" transform="translate(55.615234 0)"/>
       <use xlink:href="#Helvetica-30" transform="translate(111.230469 0)"/>
      </g>
     </g>
    </g>
    <g id="ytick_5">
     <g id="line2d_21">
      <path d="M 42.041375 61.432756 
L 370.585125 61.432756 
" clip-path="url(#p6e7ccc3b15)" style="fill: none; stroke: #ffffff; stroke-linecap: square"/>
     </g>
     <g id="line2d_22">
      <path d="M 42.041375 61.432756 
" style="fill: none; stroke: #333333; stroke-width: 1.5; stroke-linecap: square"/>
      <g>
       <use xlink:href="#md1a3371348" x="42.041375" y="61.432756" style="fill: #333333; stroke: #333333"/>
      </g>
     </g>
     <g id="text_9">
      <!-- 200 -->
      <g style="fill: #4d4d4d" transform="translate(22.4105 64.589068) scale(0.088 -0.088)">
       <use xlink:href="#Helvetica-32"/>
       <use xlink:href="#Helvetica-30" transform="translate(55.615234 0)"/>
       <use xlink:href="#Helvetica-30" transform="translate(111.230469 0)"/>
      </g>
     </g>
    </g>
    <g id="ytick_6">
     <g id="line2d_23">
      <path d="M 42.041375 299.59229 
L 370.585125 299.59229 
" clip-path="url(#p6e7ccc3b15)" style="fill: none; stroke: #ffffff; stroke-width: 0.5; stroke-linecap: square"/>
     </g>
    </g>
    <g id="ytick_7">
     <g id="line2d_24">
      <path d="M 42.041375 246.667949 
L 370.585125 246.667949 
" clip-path="url(#p6e7ccc3b15)" style="fill: none; stroke: #ffffff; stroke-width: 0.5; stroke-linecap: square"/>
     </g>
    </g>
    <g id="ytick_8">
     <g id="line2d_25">
      <path d="M 42.041375 193.743608 
L 370.585125 193.743608 
" clip-path="url(#p6e7ccc3b15)" style="fill: none; stroke: #ffffff; stroke-width: 0.5; stroke-linecap: square"/>
     </g>
    </g>
    <g id="ytick_9">
     <g id="line2d_26">
      <path d="M 42.041375 140.819267 
L 370.585125 140.819267 
" clip-path="url(#p6e7ccc3b15)" style="fill: none; stroke: #ffffff; stroke-width: 0.5; stroke-linecap: square"/>
     </g>
    </g>
    <g id="ytick_10">
     <g id="line2d_27">
      <path d="M 42.041375 87.894926 
L 370.585125 87.894926 
" clip-path="url(#p6e7ccc3b15)" style="fill: none; stroke: #ffffff; stroke-width: 0.5; stroke-linecap: square"/>
     </g>
    </g>
    <g id="ytick_11">
     <g id="line2d_28">
      <path d="M 42.041375 34.970585 
L 370.585125 34.970585 
" clip-path="url(#p6e7ccc3b15)" style="fill: none; stroke: #ffffff; stroke-width: 0.5; stroke-linecap: square"/>
     </g>
    </g>
   </g>
   <g id="PathCollection_1">
    <path d="M 227.054648 180.400553 
L 231.441248 176.013954 
L 227.054648 171.627354 
L 222.668049 176.013954 
z
" clip-path="url(#p6e7ccc3b15)" style="fill: #c77cff; stroke: #c77cff; stroke-width: 0.886227"/>
    <path d="M 276.834004 176.695849 
L 281.220604 172.30925 
L 276.834004 167.92265 
L 272.447405 172.30925 
z
" clip-path="url(#p6e7ccc3b15)" style="fill: #c77cff; stroke: #c77cff; stroke-width: 0.886227"/>
    <path d="M 276.834004 174.843497 
L 281.220604 170.456898 
L 276.834004 166.070298 
L 272.447405 170.456898 
z
" clip-path="url(#p6e7ccc3b15)" style="fill: #c77cff; stroke: #c77cff; stroke-width: 0.886227"/>
    <path d="M 276.834004 182.252905 
L 281.220604 177.866306 
L 276.834004 173.479706 
L 272.447405 177.866306 
z
" clip-path="url(#p6e7ccc3b15)" style="fill: #c77cff; stroke: #c77cff; stroke-width: 0.886227"/>
    <path d="M 276.834004 179.606688 
L 281.220604 175.220089 
L 276.834004 170.833489 
L 272.447405 175.220089 
z
" clip-path="url(#p6e7ccc3b15)" style="fill: #c77cff; stroke: #c77cff; stroke-width: 0.886227"/>
    <path d="M 276.834004 172.19728 
L 281.220604 167.810681 
L 276.834004 163.424081 
L 272.447405 167.810681 
z
" clip-path="url(#p6e7ccc3b15)" style="fill: #c77cff; stroke: #c77cff; stroke-width: 0.886227"/>
    <path d="M 289.278843 226.973973 
L 293.665443 222.587374 
L 289.278843 218.200774 
L 284.892244 222.587374 
z
" clip-path="url(#p6e7ccc3b15)" style="fill: #c77cff; stroke: #c77cff; stroke-width: 0.886227"/>
    <path d="M 289.278843 87.518335 
L 293.665443 83.131735 
L 289.278843 78.745136 
L 284.892244 83.131735 
z
" clip-path="url(#p6e7ccc3b15)" style="fill: #c77cff; stroke: #c77cff; stroke-width: 0.886227"/>
   </g>
   <g id="PathCollection_2">
    <path d="M 56.975182 123.427901 
L 53.873388 129.631489 
L 60.076976 129.631489 
z
" clip-path="url(#p6e7ccc3b15)" style="fill: #7cae00; stroke: #7cae00; stroke-width: 0.886227"/>
    <path d="M 56.975182 151.21318 
L 53.873388 157.416768 
L 60.076976 157.416768 
z
" clip-path="url(#p6e7ccc3b15)" style="fill: #7cae00; stroke: #7cae00; stroke-width: 0.886227"/>
    <path d="M 61.123461 145.920746 
L 58.021667 152.124334 
L 64.225256 152.124334 
z
" clip-path="url(#p6e7ccc3b15)" style="fill: #7cae00; stroke: #7cae00; stroke-width: 0.886227"/>
    <path d="M 61.123461 146.979232 
L 58.021667 153.182821 
L 64.225256 153.182821 
z
" clip-path="url(#p6e7ccc3b15)" style="fill: #7cae00; stroke: #7cae00; stroke-width: 0.886227"/>
    <path d="M 65.271741 178.998459 
L 62.169947 185.202047 
L 68.373535 185.202047 
z
" clip-path="url(#p6e7ccc3b15)" style="fill: #7cae00; stroke: #7cae00; stroke-width: 0.886227"/>
    <path d="M 65.271741 153.330153 
L 62.169947 159.533742 
L 68.373535 159.533742 
z
" clip-path="url(#p6e7ccc3b15)" style="fill: #7cae00; stroke: #7cae00; stroke-width: 0.886227"/>
    <path d="M 69.420021 170.795186 
L 66.318227 176.998774 
L 72.521815 176.998774 
z
" clip-path="url(#p6e7ccc3b15)" style="fill: #7cae00; stroke: #7cae00; stroke-width: 0.886227"/>
    <path d="M 69.420021 177.410728 
L 66.318227 183.614317 
L 72.521815 183.614317 
z
" clip-path="url(#p6e7ccc3b15)" style="fill: #7cae00; stroke: #7cae00; stroke-width: 0.886227"/>
    <path d="M 69.420021 159.416453 
L 66.318227 165.620041 
L 72.521815 165.620041 
z
" clip-path="url(#p6e7ccc3b15)" style="fill: #7cae00; stroke: #7cae00; stroke-width: 0.886227"/>
    <path d="M 73.568301 203.343656 
L 70.466506 209.547244 
L 76.670095 209.547244 
z
" clip-path="url(#p6e7ccc3b15)" style="fill: #7cae00; stroke: #7cae00; stroke-width: 0.886227"/>
    <path d="M 73.568301 160.474939 
L 70.466506 166.678528 
L 76.670095 166.678528 
z
" clip-path="url(#p6e7ccc3b15)" style="fill: #7cae00; stroke: #7cae00; stroke-width: 0.886227"/>
    <path d="M 73.568301 230.599691 
L 70.466506 236.80328 
L 76.670095 236.80328 
z
" clip-path="url(#p6e7ccc3b15)" style="fill: #7cae00; stroke: #7cae00; stroke-width: 0.886227"/>
    <path d="M 73.568301 212.076172 
L 70.466506 218.27976 
L 76.670095 218.27976 
z
" clip-path="url(#p6e7ccc3b15)" style="fill: #7cae00; stroke: #7cae00; stroke-width: 0.886227"/>
    <path d="M 73.568301 259.9727 
L 70.466506 266.176289 
L 76.670095 266.176289 
z
" clip-path="url(#p6e7ccc3b15)" style="fill: #7cae00; stroke: #7cae00; stroke-width: 0.886227"/>
    <path d="M 73.568301 237.215234 
L 70.466506 243.418822 
L 76.670095 243.418822 
z
" clip-path="url(#p6e7ccc3b15)" style="fill: #7cae00; stroke: #7cae00; stroke-width: 0.886227"/>
    <path d="M 77.71658 153.065532 
L 74.614786 159.26912 
L 80.818374 159.26912 
z
" clip-path="url(#p6e7ccc3b15)" style="fill: #7cae00; stroke: #7cae00; stroke-width: 0.886227"/>
    <path d="M 77.71658 136.658986 
L 74.614786 142.862574 
L 80.818374 142.862574 
z
" clip-path="url(#p6e7ccc3b15)" style="fill: #7cae00; stroke: #7cae00; stroke-width: 0.886227"/>
    <path d="M 81.86486 163.385778 
L 78.763066 169.589367 
L 84.966654 169.589367 
z
" clip-path="url(#p6e7ccc3b15)" style="fill: #7cae00; stroke: #7cae00; stroke-width: 0.886227"/>
    <path d="M 81.86486 170.265942 
L 78.763066 176.469531 
L 84.966654 176.469531 
z
" clip-path="url(#p6e7ccc3b15)" style="fill: #7cae00; stroke: #7cae00; stroke-width: 0.886227"/>
    <path d="M 81.86486 161.004183 
L 78.763066 167.207771 
L 84.966654 167.207771 
z
" clip-path="url(#p6e7ccc3b15)" style="fill: #7cae00; stroke: #7cae00; stroke-width: 0.886227"/>
    <path d="M 86.01314 145.391502 
L 82.911345 151.595091 
L 89.114934 151.595091 
z
" clip-path="url(#p6e7ccc3b15)" style="fill: #7cae00; stroke: #7cae00; stroke-width: 0.886227"/>
    <path d="M 86.01314 169.207456 
L 82.911345 175.411044 
L 89.114934 175.411044 
z
" clip-path="url(#p6e7ccc3b15)" style="fill: #7cae00; stroke: #7cae00; stroke-width: 0.886227"/>
    <path d="M 86.01314 154.124018 
L 82.911345 160.327607 
L 89.114934 160.327607 
z
" clip-path="url(#p6e7ccc3b15)" style="fill: #7cae00; stroke: #7cae00; stroke-width: 0.886227"/>
    <path d="M 86.01314 116.547736 
L 82.911345 122.751325 
L 89.114934 122.751325 
z
" clip-path="url(#p6e7ccc3b15)" style="fill: #7cae00; stroke: #7cae00; stroke-width: 0.886227"/>
    <path d="M 86.01314 144.333015 
L 82.911345 150.536604 
L 89.114934 150.536604 
z
" clip-path="url(#p6e7ccc3b15)" style="fill: #7cae00; stroke: #7cae00; stroke-width: 0.886227"/>
    <path d="M 86.01314 154.38864 
L 82.911345 160.592229 
L 89.114934 160.592229 
z
" clip-path="url(#p6e7ccc3b15)" style="fill: #7cae00; stroke: #7cae00; stroke-width: 0.886227"/>
    <path d="M 86.01314 153.594775 
L 82.911345 159.798364 
L 89.114934 159.798364 
z
" clip-path="url(#p6e7ccc3b15)" style="fill: #7cae00; stroke: #7cae00; stroke-width: 0.886227"/>
    <path d="M 90.161419 125.544874 
L 87.059625 131.748463 
L 93.263213 131.748463 
z
" clip-path="url(#p6e7ccc3b15)" style="fill: #7cae00; stroke: #7cae00; stroke-width: 0.886227"/>
    <path d="M 90.161419 150.154693 
L 87.059625 156.358281 
L 93.263213 156.358281 
z
" clip-path="url(#p6e7ccc3b15)" style="fill: #7cae00; stroke: #7cae00; stroke-width: 0.886227"/>
    <path d="M 90.161419 149.096206 
L 87.059625 155.299795 
L 93.263213 155.299795 
z
" clip-path="url(#p6e7ccc3b15)" style="fill: #7cae00; stroke: #7cae00; stroke-width: 0.886227"/>
    <path d="M 90.161419 225.571879 
L 87.059625 231.775467 
L 93.263213 231.775467 
z
" clip-path="url(#p6e7ccc3b15)" style="fill: #7cae00; stroke: #7cae00; stroke-width: 0.886227"/>
    <path d="M 90.161419 147.508476 
L 87.059625 153.712064 
L 93.263213 153.712064 
z
" clip-path="url(#p6e7ccc3b15)" style="fill: #7cae00; stroke: #7cae00; stroke-width: 0.886227"/>
    <path d="M 90.161419 258.914213 
L 87.059625 265.117802 
L 93.263213 265.117802 
z
" clip-path="url(#p6e7ccc3b15)" style="fill: #7cae00; stroke: #7cae00; stroke-width: 0.886227"/>
    <path d="M 94.309699 137.452851 
L 91.207905 143.65644 
L 97.411493 143.65644 
z
" clip-path="url(#p6e7ccc3b15)" style="fill: #7cae00; stroke: #7cae00; stroke-width: 0.886227"/>
    <path d="M 98.457979 145.656124 
L 95.356184 151.859712 
L 101.559773 151.859712 
z
" clip-path="url(#p6e7ccc3b15)" style="fill: #7cae00; stroke: #7cae00; stroke-width: 0.886227"/>
    <path d="M 98.457979 112.578411 
L 95.356184 118.781999 
L 101.559773 118.781999 
z
" clip-path="url(#p6e7ccc3b15)" style="fill: #7cae00; stroke: #7cae00; stroke-width: 0.886227"/>
    <path d="M 123.347657 162.327291 
L 120.245862 168.53088 
L 126.449451 168.53088 
z
" clip-path="url(#p6e7ccc3b15)" style="fill: #7cae00; stroke: #7cae00; stroke-width: 0.886227"/>
    <path d="M 123.347657 145.126881 
L 120.245862 151.330469 
L 126.449451 151.330469 
z
" clip-path="url(#p6e7ccc3b15)" style="fill: #7cae00; stroke: #7cae00; stroke-width: 0.886227"/>
    <path d="M 123.347657 157.299479 
L 120.245862 163.503067 
L 126.449451 163.503067 
z
" clip-path="url(#p6e7ccc3b15)" style="fill: #7cae00; stroke: #7cae00; stroke-width: 0.886227"/>
    <path d="M 106.754538 170.795186 
L 103.652744 176.998774 
L 109.856332 176.998774 
z
" clip-path="url(#p6e7ccc3b15)" style="fill: #7cae00; stroke: #7cae00; stroke-width: 0.886227"/>
    <path d="M 106.754538 144.333015 
L 103.652744 150.536604 
L 109.856332 150.536604 
z
" clip-path="url(#p6e7ccc3b15)" style="fill: #7cae00; stroke: #7cae00; stroke-width: 0.886227"/>
    <path d="M 106.754538 174.764511 
L 103.652744 180.9681 
L 109.856332 180.9681 
z
" clip-path="url(#p6e7ccc3b15)" style="fill: #7cae00; stroke: #7cae00; stroke-width: 0.886227"/>
    <path d="M 106.754538 186.93711 
L 103.652744 193.140698 
L 109.856332 193.140698 
z
" clip-path="url(#p6e7ccc3b15)" style="fill: #7cae00; stroke: #7cae00; stroke-width: 0.886227"/>
    <path d="M 115.051097 167.355104 
L 111.949303 173.558692 
L 118.152891 173.558692 
z
" clip-path="url(#p6e7ccc3b15)" style="fill: #7cae00; stroke: #7cae00; stroke-width: 0.886227"/>
    <path d="M 115.051097 168.148969 
L 111.949303 174.352557 
L 118.152891 174.352557 
z
" clip-path="url(#p6e7ccc3b15)" style="fill: #7cae00; stroke: #7cae00; stroke-width: 0.886227"/>
    <path d="M 115.051097 177.410728 
L 111.949303 183.614317 
L 118.152891 183.614317 
z
" clip-path="url(#p6e7ccc3b15)" style="fill: #7cae00; stroke: #7cae00; stroke-width: 0.886227"/>
    <path d="M 115.051097 153.594775 
L 111.949303 159.798364 
L 118.152891 159.798364 
z
" clip-path="url(#p6e7ccc3b15)" style="fill: #7cae00; stroke: #7cae00; stroke-width: 0.886227"/>
    <path d="M 115.051097 191.435679 
L 111.949303 197.639267 
L 118.152891 197.639267 
z
" clip-path="url(#p6e7ccc3b15)" style="fill: #7cae00; stroke: #7cae00; stroke-width: 0.886227"/>
    <path d="M 119.199377 160.739561 
L 116.097583 166.94315 
L 122.301171 166.94315 
z
" clip-path="url(#p6e7ccc3b15)" style="fill: #7cae00; stroke: #7cae00; stroke-width: 0.886227"/>
    <path d="M 131.644216 197.7866 
L 128.542422 203.990188 
L 134.74601 203.990188 
z
" clip-path="url(#p6e7ccc3b15)" style="fill: #7cae00; stroke: #7cae00; stroke-width: 0.886227"/>
    <path d="M 131.644216 167.090482 
L 128.542422 173.29407 
L 134.74601 173.29407 
z
" clip-path="url(#p6e7ccc3b15)" style="fill: #7cae00; stroke: #7cae00; stroke-width: 0.886227"/>
    <path d="M 135.792496 162.856535 
L 132.690701 169.060123 
L 138.89429 169.060123 
z
" clip-path="url(#p6e7ccc3b15)" style="fill: #7cae00; stroke: #7cae00; stroke-width: 0.886227"/>
    <path d="M 135.792496 169.736699 
L 132.690701 175.940288 
L 138.89429 175.940288 
z
" clip-path="url(#p6e7ccc3b15)" style="fill: #7cae00; stroke: #7cae00; stroke-width: 0.886227"/>
    <path d="M 135.792496 151.742423 
L 132.690701 157.946012 
L 138.89429 157.946012 
z
" clip-path="url(#p6e7ccc3b15)" style="fill: #7cae00; stroke: #7cae00; stroke-width: 0.886227"/>
    <path d="M 152.385614 134.012769 
L 149.28382 140.216357 
L 155.487409 140.216357 
z
" clip-path="url(#p6e7ccc3b15)" style="fill: #7cae00; stroke: #7cae00; stroke-width: 0.886227"/>
    <path d="M 156.533894 149.62545 
L 153.4321 155.829038 
L 159.635688 155.829038 
z
" clip-path="url(#p6e7ccc3b15)" style="fill: #7cae00; stroke: #7cae00; stroke-width: 0.886227"/>
    <path d="M 160.682174 149.890071 
L 157.580379 156.09366 
L 163.783968 156.09366 
z
" clip-path="url(#p6e7ccc3b15)" style="fill: #7cae00; stroke: #7cae00; stroke-width: 0.886227"/>
    <path d="M 160.682174 169.472077 
L 157.580379 175.675666 
L 163.783968 175.675666 
z
" clip-path="url(#p6e7ccc3b15)" style="fill: #7cae00; stroke: #7cae00; stroke-width: 0.886227"/>
    <path d="M 164.830453 163.915022 
L 161.728659 170.11861 
L 167.932248 170.11861 
z
" clip-path="url(#p6e7ccc3b15)" style="fill: #7cae00; stroke: #7cae00; stroke-width: 0.886227"/>
    <path d="M 164.830453 186.672488 
L 161.728659 192.876077 
L 167.932248 192.876077 
z
" clip-path="url(#p6e7ccc3b15)" style="fill: #7cae00; stroke: #7cae00; stroke-width: 0.886227"/>
    <path d="M 164.830453 171.059808 
L 161.728659 177.263396 
L 167.932248 177.263396 
z
" clip-path="url(#p6e7ccc3b15)" style="fill: #7cae00; stroke: #7cae00; stroke-width: 0.886227"/>
    <path d="M 164.830453 165.767373 
L 161.728659 171.970962 
L 167.932248 171.970962 
z
" clip-path="url(#p6e7ccc3b15)" style="fill: #7cae00; stroke: #7cae00; stroke-width: 0.886227"/>
    <path d="M 164.830453 150.683936 
L 161.728659 156.887525 
L 167.932248 156.887525 
z
" clip-path="url(#p6e7ccc3b15)" style="fill: #7cae00; stroke: #7cae00; stroke-width: 0.886227"/>
    <path d="M 168.978733 155.182505 
L 165.876939 161.386094 
L 172.080527 161.386094 
z
" clip-path="url(#p6e7ccc3b15)" style="fill: #7cae00; stroke: #7cae00; stroke-width: 0.886227"/>
    <path d="M 168.978733 155.182505 
L 165.876939 161.386094 
L 172.080527 161.386094 
z
" clip-path="url(#p6e7ccc3b15)" style="fill: #7cae00; stroke: #7cae00; stroke-width: 0.886227"/>
    <path d="M 168.978733 178.469215 
L 165.876939 184.672804 
L 172.080527 184.672804 
z
" clip-path="url(#p6e7ccc3b15)" style="fill: #7cae00; stroke: #7cae00; stroke-width: 0.886227"/>
    <path d="M 168.978733 136.129743 
L 165.876939 142.333331 
L 172.080527 142.333331 
z
" clip-path="url(#p6e7ccc3b15)" style="fill: #7cae00; stroke: #7cae00; stroke-width: 0.886227"/>
    <path d="M 168.978733 166.82586 
L 165.876939 173.029449 
L 172.080527 173.029449 
z
" clip-path="url(#p6e7ccc3b15)" style="fill: #7cae00; stroke: #7cae00; stroke-width: 0.886227"/>
    <path d="M 168.978733 146.185367 
L 165.876939 152.388956 
L 172.080527 152.388956 
z
" clip-path="url(#p6e7ccc3b15)" style="fill: #7cae00; stroke: #7cae00; stroke-width: 0.886227"/>
    <path d="M 168.978733 182.173919 
L 165.876939 188.377508 
L 172.080527 188.377508 
z
" clip-path="url(#p6e7ccc3b15)" style="fill: #7cae00; stroke: #7cae00; stroke-width: 0.886227"/>
    <path d="M 168.978733 147.243854 
L 165.876939 153.447443 
L 172.080527 153.447443 
z
" clip-path="url(#p6e7ccc3b15)" style="fill: #7cae00; stroke: #7cae00; stroke-width: 0.886227"/>
    <path d="M 173.127013 156.505614 
L 170.025218 162.709202 
L 176.228807 162.709202 
z
" clip-path="url(#p6e7ccc3b15)" style="fill: #7cae00; stroke: #7cae00; stroke-width: 0.886227"/>
    <path d="M 177.275292 154.38864 
L 174.173498 160.592229 
L 180.377087 160.592229 
z
" clip-path="url(#p6e7ccc3b15)" style="fill: #7cae00; stroke: #7cae00; stroke-width: 0.886227"/>
    <path d="M 181.423572 130.572687 
L 178.321778 136.776275 
L 184.525366 136.776275 
z
" clip-path="url(#p6e7ccc3b15)" style="fill: #7cae00; stroke: #7cae00; stroke-width: 0.886227"/>
    <path d="M 181.423572 133.218904 
L 178.321778 139.422492 
L 184.525366 139.422492 
z
" clip-path="url(#p6e7ccc3b15)" style="fill: #7cae00; stroke: #7cae00; stroke-width: 0.886227"/>
    <path d="M 185.571852 141.686798 
L 182.470057 147.890387 
L 188.673646 147.890387 
z
" clip-path="url(#p6e7ccc3b15)" style="fill: #7cae00; stroke: #7cae00; stroke-width: 0.886227"/>
    <path d="M 185.571852 137.452851 
L 182.470057 143.65644 
L 188.673646 143.65644 
z
" clip-path="url(#p6e7ccc3b15)" style="fill: #7cae00; stroke: #7cae00; stroke-width: 0.886227"/>
    <path d="M 185.571852 149.096206 
L 182.470057 155.299795 
L 188.673646 155.299795 
z
" clip-path="url(#p6e7ccc3b15)" style="fill: #7cae00; stroke: #7cae00; stroke-width: 0.886227"/>
    <path d="M 185.571852 148.302341 
L 182.470057 154.505929 
L 188.673646 154.505929 
z
" clip-path="url(#p6e7ccc3b15)" style="fill: #7cae00; stroke: #7cae00; stroke-width: 0.886227"/>
    <path d="M 189.720131 131.10193 
L 186.618337 137.305519 
L 192.821926 137.305519 
z
" clip-path="url(#p6e7ccc3b15)" style="fill: #7cae00; stroke: #7cae00; stroke-width: 0.886227"/>
    <path d="M 189.720131 136.394364 
L 186.618337 142.597953 
L 192.821926 142.597953 
z
" clip-path="url(#p6e7ccc3b15)" style="fill: #7cae00; stroke: #7cae00; stroke-width: 0.886227"/>
    <path d="M 193.868411 145.920746 
L 190.766617 152.124334 
L 196.970205 152.124334 
z
" clip-path="url(#p6e7ccc3b15)" style="fill: #7cae00; stroke: #7cae00; stroke-width: 0.886227"/>
    <path d="M 193.868411 148.831584 
L 190.766617 155.035173 
L 196.970205 155.035173 
z
" clip-path="url(#p6e7ccc3b15)" style="fill: #7cae00; stroke: #7cae00; stroke-width: 0.886227"/>
    <path d="M 193.868411 150.154693 
L 190.766617 156.358281 
L 196.970205 156.358281 
z
" clip-path="url(#p6e7ccc3b15)" style="fill: #7cae00; stroke: #7cae00; stroke-width: 0.886227"/>
    <path d="M 193.868411 144.068394 
L 190.766617 150.271982 
L 196.970205 150.271982 
z
" clip-path="url(#p6e7ccc3b15)" style="fill: #7cae00; stroke: #7cae00; stroke-width: 0.886227"/>
    <path d="M 193.868411 148.831584 
L 190.766617 155.035173 
L 196.970205 155.035173 
z
" clip-path="url(#p6e7ccc3b15)" style="fill: #7cae00; stroke: #7cae00; stroke-width: 0.886227"/>
    <path d="M 193.868411 124.221766 
L 190.766617 130.425354 
L 196.970205 130.425354 
z
" clip-path="url(#p6e7ccc3b15)" style="fill: #7cae00; stroke: #7cae00; stroke-width: 0.886227"/>
    <path d="M 198.016691 170.795186 
L 194.914896 176.998774 
L 201.118485 176.998774 
z
" clip-path="url(#p6e7ccc3b15)" style="fill: #7cae00; stroke: #7cae00; stroke-width: 0.886227"/>
    <path d="M 198.016691 200.432817 
L 194.914896 206.636405 
L 201.118485 206.636405 
z
" clip-path="url(#p6e7ccc3b15)" style="fill: #7cae00; stroke: #7cae00; stroke-width: 0.886227"/>
    <path d="M 198.016691 166.82586 
L 194.914896 173.029449 
L 201.118485 173.029449 
z
" clip-path="url(#p6e7ccc3b15)" style="fill: #7cae00; stroke: #7cae00; stroke-width: 0.886227"/>
    <path d="M 198.016691 197.521978 
L 194.914896 203.725567 
L 201.118485 203.725567 
z
" clip-path="url(#p6e7ccc3b15)" style="fill: #7cae00; stroke: #7cae00; stroke-width: 0.886227"/>
    <path d="M 198.016691 154.124018 
L 194.914896 160.327607 
L 201.118485 160.327607 
z
" clip-path="url(#p6e7ccc3b15)" style="fill: #7cae00; stroke: #7cae00; stroke-width: 0.886227"/>
    <path d="M 198.016691 161.004183 
L 194.914896 167.207771 
L 201.118485 167.207771 
z
" clip-path="url(#p6e7ccc3b15)" style="fill: #7cae00; stroke: #7cae00; stroke-width: 0.886227"/>
    <path d="M 202.16497 174.49989 
L 199.063176 180.703478 
L 205.266765 180.703478 
z
" clip-path="url(#p6e7ccc3b15)" style="fill: #7cae00; stroke: #7cae00; stroke-width: 0.886227"/>
    <path d="M 202.16497 149.62545 
L 199.063176 155.829038 
L 205.266765 155.829038 
z
" clip-path="url(#p6e7ccc3b15)" style="fill: #7cae00; stroke: #7cae00; stroke-width: 0.886227"/>
    <path d="M 202.16497 181.115432 
L 199.063176 187.319021 
L 205.266765 187.319021 
z
" clip-path="url(#p6e7ccc3b15)" style="fill: #7cae00; stroke: #7cae00; stroke-width: 0.886227"/>
    <path d="M 202.16497 171.853673 
L 199.063176 178.057261 
L 205.266765 178.057261 
z
" clip-path="url(#p6e7ccc3b15)" style="fill: #7cae00; stroke: #7cae00; stroke-width: 0.886227"/>
    <path d="M 206.31325 191.171057 
L 203.211456 197.374646 
L 209.415044 197.374646 
z
" clip-path="url(#p6e7ccc3b15)" style="fill: #7cae00; stroke: #7cae00; stroke-width: 0.886227"/>
    <path d="M 206.31325 142.480663 
L 203.211456 148.684252 
L 209.415044 148.684252 
z
" clip-path="url(#p6e7ccc3b15)" style="fill: #7cae00; stroke: #7cae00; stroke-width: 0.886227"/>
    <path d="M 210.46153 135.600499 
L 207.359735 141.804088 
L 213.563324 141.804088 
z
" clip-path="url(#p6e7ccc3b15)" style="fill: #7cae00; stroke: #7cae00; stroke-width: 0.886227"/>
    <path d="M 210.46153 124.221766 
L 207.359735 130.425354 
L 213.563324 130.425354 
z
" clip-path="url(#p6e7ccc3b15)" style="fill: #7cae00; stroke: #7cae00; stroke-width: 0.886227"/>
    <path d="M 210.46153 116.283115 
L 207.359735 122.486703 
L 213.563324 122.486703 
z
" clip-path="url(#p6e7ccc3b15)" style="fill: #7cae00; stroke: #7cae00; stroke-width: 0.886227"/>
    <path d="M 210.46153 167.619725 
L 207.359735 173.823314 
L 213.563324 173.823314 
z
" clip-path="url(#p6e7ccc3b15)" style="fill: #7cae00; stroke: #7cae00; stroke-width: 0.886227"/>
    <path d="M 210.46153 155.97637 
L 207.359735 162.179959 
L 213.563324 162.179959 
z
" clip-path="url(#p6e7ccc3b15)" style="fill: #7cae00; stroke: #7cae00; stroke-width: 0.886227"/>
    <path d="M 210.46153 154.653262 
L 207.359735 160.85685 
L 213.563324 160.85685 
z
" clip-path="url(#p6e7ccc3b15)" style="fill: #7cae00; stroke: #7cae00; stroke-width: 0.886227"/>
    <path d="M 214.609809 131.895795 
L 211.508015 138.099384 
L 217.711604 138.099384 
z
" clip-path="url(#p6e7ccc3b15)" style="fill: #7cae00; stroke: #7cae00; stroke-width: 0.886227"/>
    <path d="M 214.609809 135.600499 
L 211.508015 141.804088 
L 217.711604 141.804088 
z
" clip-path="url(#p6e7ccc3b15)" style="fill: #7cae00; stroke: #7cae00; stroke-width: 0.886227"/>
    <path d="M 222.906369 177.67535 
L 219.804574 183.878939 
L 226.008163 183.878939 
z
" clip-path="url(#p6e7ccc3b15)" style="fill: #7cae00; stroke: #7cae00; stroke-width: 0.886227"/>
    <path d="M 222.906369 210.753063 
L 219.804574 216.956652 
L 226.008163 216.956652 
z
" clip-path="url(#p6e7ccc3b15)" style="fill: #7cae00; stroke: #7cae00; stroke-width: 0.886227"/>
    <path d="M 222.906369 207.842225 
L 219.804574 214.045813 
L 226.008163 214.045813 
z
" clip-path="url(#p6e7ccc3b15)" style="fill: #7cae00; stroke: #7cae00; stroke-width: 0.886227"/>
    <path d="M 222.906369 180.056946 
L 219.804574 186.260534 
L 226.008163 186.260534 
z
" clip-path="url(#p6e7ccc3b15)" style="fill: #7cae00; stroke: #7cae00; stroke-width: 0.886227"/>
    <path d="M 222.906369 167.355104 
L 219.804574 173.558692 
L 226.008163 173.558692 
z
" clip-path="url(#p6e7ccc3b15)" style="fill: #7cae00; stroke: #7cae00; stroke-width: 0.886227"/>
    <path d="M 222.906369 174.764511 
L 219.804574 180.9681 
L 226.008163 180.9681 
z
" clip-path="url(#p6e7ccc3b15)" style="fill: #7cae00; stroke: #7cae00; stroke-width: 0.886227"/>
    <path d="M 222.906369 180.586189 
L 219.804574 186.789777 
L 226.008163 186.789777 
z
" clip-path="url(#p6e7ccc3b15)" style="fill: #7cae00; stroke: #7cae00; stroke-width: 0.886227"/>
    <path d="M 222.906369 184.290893 
L 219.804574 190.494481 
L 226.008163 190.494481 
z
" clip-path="url(#p6e7ccc3b15)" style="fill: #7cae00; stroke: #7cae00; stroke-width: 0.886227"/>
    <path d="M 222.906369 177.939972 
L 219.804574 184.14356 
L 226.008163 184.14356 
z
" clip-path="url(#p6e7ccc3b15)" style="fill: #7cae00; stroke: #7cae00; stroke-width: 0.886227"/>
    <path d="M 231.202928 133.483526 
L 228.101134 139.687114 
L 234.304722 139.687114 
z
" clip-path="url(#p6e7ccc3b15)" style="fill: #7cae00; stroke: #7cae00; stroke-width: 0.886227"/>
    <path d="M 231.202928 152.536288 
L 228.101134 158.739877 
L 234.304722 158.739877 
z
" clip-path="url(#p6e7ccc3b15)" style="fill: #7cae00; stroke: #7cae00; stroke-width: 0.886227"/>
    <path d="M 231.202928 163.385778 
L 228.101134 169.589367 
L 234.304722 169.589367 
z
" clip-path="url(#p6e7ccc3b15)" style="fill: #7cae00; stroke: #7cae00; stroke-width: 0.886227"/>
    <path d="M 235.351208 151.477801 
L 232.249413 157.68139 
L 238.453002 157.68139 
z
" clip-path="url(#p6e7ccc3b15)" style="fill: #7cae00; stroke: #7cae00; stroke-width: 0.886227"/>
    <path d="M 235.351208 149.096206 
L 232.249413 155.299795 
L 238.453002 155.299795 
z
" clip-path="url(#p6e7ccc3b15)" style="fill: #7cae00; stroke: #7cae00; stroke-width: 0.886227"/>
    <path d="M 239.499487 144.068394 
L 236.397693 150.271982 
L 242.601282 150.271982 
z
" clip-path="url(#p6e7ccc3b15)" style="fill: #7cae00; stroke: #7cae00; stroke-width: 0.886227"/>
    <path d="M 243.647767 136.394364 
L 240.545973 142.597953 
L 246.749561 142.597953 
z
" clip-path="url(#p6e7ccc3b15)" style="fill: #7cae00; stroke: #7cae00; stroke-width: 0.886227"/>
    <path d="M 243.647767 153.065532 
L 240.545973 159.26912 
L 246.749561 159.26912 
z
" clip-path="url(#p6e7ccc3b15)" style="fill: #7cae00; stroke: #7cae00; stroke-width: 0.886227"/>
    <path d="M 247.796047 150.683936 
L 244.694252 156.887525 
L 250.897841 156.887525 
z
" clip-path="url(#p6e7ccc3b15)" style="fill: #7cae00; stroke: #7cae00; stroke-width: 0.886227"/>
    <path d="M 251.944326 146.449989 
L 248.842532 152.653578 
L 255.046121 152.653578 
z
" clip-path="url(#p6e7ccc3b15)" style="fill: #7cae00; stroke: #7cae00; stroke-width: 0.886227"/>
    <path d="M 251.944326 128.455713 
L 248.842532 134.659302 
L 255.046121 134.659302 
z
" clip-path="url(#p6e7ccc3b15)" style="fill: #7cae00; stroke: #7cae00; stroke-width: 0.886227"/>
    <path d="M 256.092606 110.726059 
L 252.990812 116.929647 
L 259.1944 116.929647 
z
" clip-path="url(#p6e7ccc3b15)" style="fill: #7cae00; stroke: #7cae00; stroke-width: 0.886227"/>
    <path d="M 260.240886 112.578411 
L 257.139091 118.781999 
L 263.34268 118.781999 
z
" clip-path="url(#p6e7ccc3b15)" style="fill: #7cae00; stroke: #7cae00; stroke-width: 0.886227"/>
    <path d="M 260.240886 99.611947 
L 257.139091 105.815536 
L 263.34268 105.815536 
z
" clip-path="url(#p6e7ccc3b15)" style="fill: #7cae00; stroke: #7cae00; stroke-width: 0.886227"/>
    <path d="M 260.240886 116.812358 
L 257.139091 123.015947 
L 263.34268 123.015947 
z
" clip-path="url(#p6e7ccc3b15)" style="fill: #7cae00; stroke: #7cae00; stroke-width: 0.886227"/>
    <path d="M 264.389165 118.66471 
L 261.287371 124.868299 
L 267.49096 124.868299 
z
" clip-path="url(#p6e7ccc3b15)" style="fill: #7cae00; stroke: #7cae00; stroke-width: 0.886227"/>
    <path d="M 264.389165 146.979232 
L 261.287371 153.182821 
L 267.49096 153.182821 
z
" clip-path="url(#p6e7ccc3b15)" style="fill: #7cae00; stroke: #7cae00; stroke-width: 0.886227"/>
    <path d="M 264.389165 161.533426 
L 261.287371 167.737015 
L 267.49096 167.737015 
z
" clip-path="url(#p6e7ccc3b15)" style="fill: #7cae00; stroke: #7cae00; stroke-width: 0.886227"/>
    <path d="M 264.389165 168.148969 
L 261.287371 174.352557 
L 267.49096 174.352557 
z
" clip-path="url(#p6e7ccc3b15)" style="fill: #7cae00; stroke: #7cae00; stroke-width: 0.886227"/>
    <path d="M 264.389165 168.678212 
L 261.287371 174.881801 
L 267.49096 174.881801 
z
" clip-path="url(#p6e7ccc3b15)" style="fill: #7cae00; stroke: #7cae00; stroke-width: 0.886227"/>
    <path d="M 264.389165 169.736699 
L 261.287371 175.940288 
L 267.49096 175.940288 
z
" clip-path="url(#p6e7ccc3b15)" style="fill: #7cae00; stroke: #7cae00; stroke-width: 0.886227"/>
    <path d="M 264.389165 194.346518 
L 261.287371 200.550106 
L 267.49096 200.550106 
z
" clip-path="url(#p6e7ccc3b15)" style="fill: #7cae00; stroke: #7cae00; stroke-width: 0.886227"/>
    <path d="M 268.537445 164.444265 
L 265.435651 170.647853 
L 271.639239 170.647853 
z
" clip-path="url(#p6e7ccc3b15)" style="fill: #7cae00; stroke: #7cae00; stroke-width: 0.886227"/>
    <path d="M 268.537445 170.795186 
L 265.435651 176.998774 
L 271.639239 176.998774 
z
" clip-path="url(#p6e7ccc3b15)" style="fill: #7cae00; stroke: #7cae00; stroke-width: 0.886227"/>
    <path d="M 272.685725 223.190283 
L 269.583931 229.393872 
L 275.787519 229.393872 
z
" clip-path="url(#p6e7ccc3b15)" style="fill: #7cae00; stroke: #7cae00; stroke-width: 0.886227"/>
    <path d="M 272.685725 185.614001 
L 269.583931 191.81759 
L 275.787519 191.81759 
z
" clip-path="url(#p6e7ccc3b15)" style="fill: #7cae00; stroke: #7cae00; stroke-width: 0.886227"/>
    <path d="M 272.685725 164.973508 
L 269.583931 171.177097 
L 275.787519 171.177097 
z
" clip-path="url(#p6e7ccc3b15)" style="fill: #7cae00; stroke: #7cae00; stroke-width: 0.886227"/>
    <path d="M 272.685725 154.653262 
L 269.583931 160.85685 
L 275.787519 160.85685 
z
" clip-path="url(#p6e7ccc3b15)" style="fill: #7cae00; stroke: #7cae00; stroke-width: 0.886227"/>
    <path d="M 276.834004 161.004183 
L 273.73221 167.207771 
L 279.935799 167.207771 
z
" clip-path="url(#p6e7ccc3b15)" style="fill: #7cae00; stroke: #7cae00; stroke-width: 0.886227"/>
    <path d="M 276.834004 183.497028 
L 273.73221 189.700616 
L 279.935799 189.700616 
z
" clip-path="url(#p6e7ccc3b15)" style="fill: #7cae00; stroke: #7cae00; stroke-width: 0.886227"/>
    <path d="M 280.982284 142.216042 
L 277.88049 148.41963 
L 284.084078 148.41963 
z
" clip-path="url(#p6e7ccc3b15)" style="fill: #7cae00; stroke: #7cae00; stroke-width: 0.886227"/>
    <path d="M 280.982284 152.536288 
L 277.88049 158.739877 
L 284.084078 158.739877 
z
" clip-path="url(#p6e7ccc3b15)" style="fill: #7cae00; stroke: #7cae00; stroke-width: 0.886227"/>
    <path d="M 280.982284 140.099068 
L 277.88049 146.302657 
L 284.084078 146.302657 
z
" clip-path="url(#p6e7ccc3b15)" style="fill: #7cae00; stroke: #7cae00; stroke-width: 0.886227"/>
    <path d="M 280.982284 154.653262 
L 277.88049 160.85685 
L 284.084078 160.85685 
z
" clip-path="url(#p6e7ccc3b15)" style="fill: #7cae00; stroke: #7cae00; stroke-width: 0.886227"/>
    <path d="M 285.130564 159.681074 
L 282.02877 165.884663 
L 288.232358 165.884663 
z
" clip-path="url(#p6e7ccc3b15)" style="fill: #7cae00; stroke: #7cae00; stroke-width: 0.886227"/>
    <path d="M 293.427123 169.736699 
L 290.325329 175.940288 
L 296.528917 175.940288 
z
" clip-path="url(#p6e7ccc3b15)" style="fill: #7cae00; stroke: #7cae00; stroke-width: 0.886227"/>
    <path d="M 293.427123 166.296617 
L 290.325329 172.500205 
L 296.528917 172.500205 
z
" clip-path="url(#p6e7ccc3b15)" style="fill: #7cae00; stroke: #7cae00; stroke-width: 0.886227"/>
    <path d="M 293.427123 166.031995 
L 290.325329 172.235584 
L 296.528917 172.235584 
z
" clip-path="url(#p6e7ccc3b15)" style="fill: #7cae00; stroke: #7cae00; stroke-width: 0.886227"/>
    <path d="M 293.427123 163.6504 
L 290.325329 169.853988 
L 296.528917 169.853988 
z
" clip-path="url(#p6e7ccc3b15)" style="fill: #7cae00; stroke: #7cae00; stroke-width: 0.886227"/>
    <path d="M 293.427123 214.722389 
L 290.325329 220.925977 
L 296.528917 220.925977 
z
" clip-path="url(#p6e7ccc3b15)" style="fill: #7cae00; stroke: #7cae00; stroke-width: 0.886227"/>
    <path d="M 293.427123 208.371468 
L 290.325329 214.575056 
L 296.528917 214.575056 
z
" clip-path="url(#p6e7ccc3b15)" style="fill: #7cae00; stroke: #7cae00; stroke-width: 0.886227"/>
    <path d="M 293.427123 207.048359 
L 290.325329 213.251948 
L 296.528917 213.251948 
z
" clip-path="url(#p6e7ccc3b15)" style="fill: #7cae00; stroke: #7cae00; stroke-width: 0.886227"/>
    <path d="M 293.427123 198.580465 
L 290.325329 204.784053 
L 296.528917 204.784053 
z
" clip-path="url(#p6e7ccc3b15)" style="fill: #7cae00; stroke: #7cae00; stroke-width: 0.886227"/>
    <path d="M 297.575403 115.753871 
L 294.473609 121.95746 
L 300.677197 121.95746 
z
" clip-path="url(#p6e7ccc3b15)" style="fill: #7cae00; stroke: #7cae00; stroke-width: 0.886227"/>
    <path d="M 297.575403 178.204594 
L 294.473609 184.408182 
L 300.677197 184.408182 
z
" clip-path="url(#p6e7ccc3b15)" style="fill: #7cae00; stroke: #7cae00; stroke-width: 0.886227"/>
    <path d="M 301.723682 234.039773 
L 298.621888 240.243362 
L 304.825477 240.243362 
z
" clip-path="url(#p6e7ccc3b15)" style="fill: #7cae00; stroke: #7cae00; stroke-width: 0.886227"/>
    <path d="M 305.871962 154.124018 
L 302.770168 160.327607 
L 308.973756 160.327607 
z
" clip-path="url(#p6e7ccc3b15)" style="fill: #7cae00; stroke: #7cae00; stroke-width: 0.886227"/>
    <path d="M 305.871962 131.895795 
L 302.770168 138.099384 
L 308.973756 138.099384 
z
" clip-path="url(#p6e7ccc3b15)" style="fill: #7cae00; stroke: #7cae00; stroke-width: 0.886227"/>
    <path d="M 305.871962 156.505614 
L 302.770168 162.709202 
L 308.973756 162.709202 
z
" clip-path="url(#p6e7ccc3b15)" style="fill: #7cae00; stroke: #7cae00; stroke-width: 0.886227"/>
    <path d="M 305.871962 134.277391 
L 302.770168 140.480979 
L 308.973756 140.480979 
z
" clip-path="url(#p6e7ccc3b15)" style="fill: #7cae00; stroke: #7cae00; stroke-width: 0.886227"/>
    <path d="M 310.020242 133.483526 
L 306.918448 139.687114 
L 313.122036 139.687114 
z
" clip-path="url(#p6e7ccc3b15)" style="fill: #7cae00; stroke: #7cae00; stroke-width: 0.886227"/>
    <path d="M 314.168521 167.619725 
L 311.066727 173.823314 
L 317.270316 173.823314 
z
" clip-path="url(#p6e7ccc3b15)" style="fill: #7cae00; stroke: #7cae00; stroke-width: 0.886227"/>
    <path d="M 314.168521 155.182505 
L 311.066727 161.386094 
L 317.270316 161.386094 
z
" clip-path="url(#p6e7ccc3b15)" style="fill: #7cae00; stroke: #7cae00; stroke-width: 0.886227"/>
    <path d="M 314.168521 162.327291 
L 311.066727 168.53088 
L 317.270316 168.53088 
z
" clip-path="url(#p6e7ccc3b15)" style="fill: #7cae00; stroke: #7cae00; stroke-width: 0.886227"/>
    <path d="M 314.168521 168.942834 
L 311.066727 175.146422 
L 317.270316 175.146422 
z
" clip-path="url(#p6e7ccc3b15)" style="fill: #7cae00; stroke: #7cae00; stroke-width: 0.886227"/>
    <path d="M 318.316801 171.853673 
L 315.215007 178.057261 
L 321.418595 178.057261 
z
" clip-path="url(#p6e7ccc3b15)" style="fill: #7cae00; stroke: #7cae00; stroke-width: 0.886227"/>
    <path d="M 318.316801 159.416453 
L 315.215007 165.620041 
L 321.418595 165.620041 
z
" clip-path="url(#p6e7ccc3b15)" style="fill: #7cae00; stroke: #7cae00; stroke-width: 0.886227"/>
    <path d="M 326.61336 127.661848 
L 323.511566 133.865437 
L 329.715155 133.865437 
z
" clip-path="url(#p6e7ccc3b15)" style="fill: #7cae00; stroke: #7cae00; stroke-width: 0.886227"/>
    <path d="M 326.61336 140.36369 
L 323.511566 146.567278 
L 329.715155 146.567278 
z
" clip-path="url(#p6e7ccc3b15)" style="fill: #7cae00; stroke: #7cae00; stroke-width: 0.886227"/>
    <path d="M 330.76164 143.009907 
L 327.659846 149.213495 
L 333.863434 149.213495 
z
" clip-path="url(#p6e7ccc3b15)" style="fill: #7cae00; stroke: #7cae00; stroke-width: 0.886227"/>
    <path d="M 334.90992 166.031995 
L 331.808126 172.235584 
L 338.011714 172.235584 
z
" clip-path="url(#p6e7ccc3b15)" style="fill: #7cae00; stroke: #7cae00; stroke-width: 0.886227"/>
    <path d="M 334.90992 134.806634 
L 331.808126 141.010223 
L 338.011714 141.010223 
z
" clip-path="url(#p6e7ccc3b15)" style="fill: #7cae00; stroke: #7cae00; stroke-width: 0.886227"/>
    <path d="M 334.90992 136.923608 
L 331.808126 143.127196 
L 338.011714 143.127196 
z
" clip-path="url(#p6e7ccc3b15)" style="fill: #7cae00; stroke: #7cae00; stroke-width: 0.886227"/>
    <path d="M 339.058199 157.299479 
L 335.956405 163.503067 
L 342.159994 163.503067 
z
" clip-path="url(#p6e7ccc3b15)" style="fill: #7cae00; stroke: #7cae00; stroke-width: 0.886227"/>
    <path d="M 339.058199 168.942834 
L 335.956405 175.146422 
L 342.159994 175.146422 
z
" clip-path="url(#p6e7ccc3b15)" style="fill: #7cae00; stroke: #7cae00; stroke-width: 0.886227"/>
    <path d="M 339.058199 162.06267 
L 335.956405 168.266258 
L 342.159994 168.266258 
z
" clip-path="url(#p6e7ccc3b15)" style="fill: #7cae00; stroke: #7cae00; stroke-width: 0.886227"/>
    <path d="M 339.058199 166.296617 
L 335.956405 172.500205 
L 342.159994 172.500205 
z
" clip-path="url(#p6e7ccc3b15)" style="fill: #7cae00; stroke: #7cae00; stroke-width: 0.886227"/>
    <path d="M 343.206479 135.865121 
L 340.104685 142.068709 
L 346.308273 142.068709 
z
" clip-path="url(#p6e7ccc3b15)" style="fill: #7cae00; stroke: #7cae00; stroke-width: 0.886227"/>
    <path d="M 347.354759 104.375138 
L 344.252965 110.578727 
L 350.456553 110.578727 
z
" clip-path="url(#p6e7ccc3b15)" style="fill: #7cae00; stroke: #7cae00; stroke-width: 0.886227"/>
    <path d="M 351.503039 163.6504 
L 348.401244 169.853988 
L 354.604833 169.853988 
z
" clip-path="url(#p6e7ccc3b15)" style="fill: #7cae00; stroke: #7cae00; stroke-width: 0.886227"/>
    <path d="M 355.651318 147.773098 
L 352.549524 153.976686 
L 358.753112 153.976686 
z
" clip-path="url(#p6e7ccc3b15)" style="fill: #7cae00; stroke: #7cae00; stroke-width: 0.886227"/>
    <path d="M 355.651318 111.255302 
L 352.549524 117.458891 
L 358.753112 117.458891 
z
" clip-path="url(#p6e7ccc3b15)" style="fill: #7cae00; stroke: #7cae00; stroke-width: 0.886227"/>
    <path d="M 355.651318 160.210318 
L 352.549524 166.413906 
L 358.753112 166.413906 
z
" clip-path="url(#p6e7ccc3b15)" style="fill: #7cae00; stroke: #7cae00; stroke-width: 0.886227"/>
    <path d="M 355.651318 152.271667 
L 352.549524 158.475255 
L 358.753112 158.475255 
z
" clip-path="url(#p6e7ccc3b15)" style="fill: #7cae00; stroke: #7cae00; stroke-width: 0.886227"/>
    <path d="M 355.651318 160.474939 
L 352.549524 166.678528 
L 358.753112 166.678528 
z
" clip-path="url(#p6e7ccc3b15)" style="fill: #7cae00; stroke: #7cae00; stroke-width: 0.886227"/>
    <path d="M 355.651318 153.594775 
L 352.549524 159.798364 
L 358.753112 159.798364 
z
" clip-path="url(#p6e7ccc3b15)" style="fill: #7cae00; stroke: #7cae00; stroke-width: 0.886227"/>
   </g>
   <g id="PathCollection_3">
    <path d="M 110.902818 162.179959 
C 111.725423 162.179959 112.514447 161.853134 113.096117 161.271464 
C 113.677787 160.689795 114.004612 159.90077 114.004612 159.078165 
C 114.004612 158.255559 113.677787 157.466535 113.096117 156.884865 
C 112.514447 156.303195 111.725423 155.97637 110.902818 155.97637 
C 110.080212 155.97637 109.291188 156.303195 108.709518 156.884865 
C 108.127848 157.466535 107.801023 158.255559 107.801023 159.078165 
C 107.801023 159.90077 108.127848 160.689795 108.709518 161.271464 
C 109.291188 161.853134 110.080212 162.179959 110.902818 162.179959 
z
" clip-path="url(#p6e7ccc3b15)" style="fill: #f8766d; stroke: #f8766d; stroke-width: 0.886227"/>
    <path d="M 110.902818 166.413906 
C 111.725423 166.413906 112.514447 166.087082 113.096117 165.505412 
C 113.677787 164.923742 114.004612 164.134717 114.004612 163.312112 
C 114.004612 162.489506 113.677787 161.700482 113.096117 161.118812 
C 112.514447 160.537142 111.725423 160.210318 110.902818 160.210318 
C 110.080212 160.210318 109.291188 160.537142 108.709518 161.118812 
C 108.127848 161.700482 107.801023 162.489506 107.801023 163.312112 
C 107.801023 164.134717 108.127848 164.923742 108.709518 165.505412 
C 109.291188 166.087082 110.080212 166.413906 110.902818 166.413906 
z
" clip-path="url(#p6e7ccc3b15)" style="fill: #f8766d; stroke: #f8766d; stroke-width: 0.886227"/>
    <path d="M 110.902818 164.296933 
C 111.725423 164.296933 112.514447 163.970108 113.096117 163.388438 
C 113.677787 162.806768 114.004612 162.017744 114.004612 161.195138 
C 114.004612 160.372533 113.677787 159.583508 113.096117 159.001839 
C 112.514447 158.420169 111.725423 158.093344 110.902818 158.093344 
C 110.080212 158.093344 109.291188 158.420169 108.709518 159.001839 
C 108.127848 159.583508 107.801023 160.372533 107.801023 161.195138 
C 107.801023 162.017744 108.127848 162.806768 108.709518 163.388438 
C 109.291188 163.970108 110.080212 164.296933 110.902818 164.296933 
z
" clip-path="url(#p6e7ccc3b15)" style="fill: #f8766d; stroke: #f8766d; stroke-width: 0.886227"/>
    <path d="M 110.902818 164.296933 
C 111.725423 164.296933 112.514447 163.970108 113.096117 163.388438 
C 113.677787 162.806768 114.004612 162.017744 114.004612 161.195138 
C 114.004612 160.372533 113.677787 159.583508 113.096117 159.001839 
C 112.514447 158.420169 111.725423 158.093344 110.902818 158.093344 
C 110.080212 158.093344 109.291188 158.420169 108.709518 159.001839 
C 108.127848 159.583508 107.801023 160.372533 107.801023 161.195138 
C 107.801023 162.017744 108.127848 162.806768 108.709518 163.388438 
C 109.291188 163.970108 110.080212 164.296933 110.902818 164.296933 
z
" clip-path="url(#p6e7ccc3b15)" style="fill: #f8766d; stroke: #f8766d; stroke-width: 0.886227"/>
    <path d="M 110.902818 160.327607 
C 111.725423 160.327607 112.514447 160.000782 113.096117 159.419112 
C 113.677787 158.837443 114.004612 158.048418 114.004612 157.225813 
C 114.004612 156.403207 113.677787 155.614183 113.096117 155.032513 
C 112.514447 154.450843 111.725423 154.124018 110.902818 154.124018 
C 110.080212 154.124018 109.291188 154.450843 108.709518 155.032513 
C 108.127848 155.614183 107.801023 156.403207 107.801023 157.225813 
C 107.801023 158.048418 108.127848 158.837443 108.709518 159.419112 
C 109.291188 160.000782 110.080212 160.327607 110.902818 160.327607 
z
" clip-path="url(#p6e7ccc3b15)" style="fill: #f8766d; stroke: #f8766d; stroke-width: 0.886227"/>
    <path d="M 110.902818 174.881801 
C 111.725423 174.881801 112.514447 174.554976 113.096117 173.973306 
C 113.677787 173.391636 114.004612 172.602612 114.004612 171.780006 
C 114.004612 170.957401 113.677787 170.168377 113.096117 169.586707 
C 112.514447 169.005037 111.725423 168.678212 110.902818 168.678212 
C 110.080212 168.678212 109.291188 169.005037 108.709518 169.586707 
C 108.127848 170.168377 107.801023 170.957401 107.801023 171.780006 
C 107.801023 172.602612 108.127848 173.391636 108.709518 173.973306 
C 109.291188 174.554976 110.080212 174.881801 110.902818 174.881801 
z
" clip-path="url(#p6e7ccc3b15)" style="fill: #f8766d; stroke: #f8766d; stroke-width: 0.886227"/>
    <path d="M 110.902818 143.65644 
C 111.725423 143.65644 112.514447 143.329615 113.096117 142.747945 
C 113.677787 142.166275 114.004612 141.377251 114.004612 140.554645 
C 114.004612 139.73204 113.677787 138.943015 113.096117 138.361346 
C 112.514447 137.779676 111.725423 137.452851 110.902818 137.452851 
C 110.080212 137.452851 109.291188 137.779676 108.709518 138.361346 
C 108.127848 138.943015 107.801023 139.73204 107.801023 140.554645 
C 107.801023 141.377251 108.127848 142.166275 108.709518 142.747945 
C 109.291188 143.329615 110.080212 143.65644 110.902818 143.65644 
z
" clip-path="url(#p6e7ccc3b15)" style="fill: #f8766d; stroke: #f8766d; stroke-width: 0.886227"/>
    <path d="M 110.902818 174.087936 
C 111.725423 174.087936 112.514447 173.761111 113.096117 173.179441 
C 113.677787 172.597771 114.004612 171.808747 114.004612 170.986141 
C 114.004612 170.163536 113.677787 169.374512 113.096117 168.792842 
C 112.514447 168.211172 111.725423 167.884347 110.902818 167.884347 
C 110.080212 167.884347 109.291188 168.211172 108.709518 168.792842 
C 108.127848 169.374512 107.801023 170.163536 107.801023 170.986141 
C 107.801023 171.808747 108.127848 172.597771 108.709518 173.179441 
C 109.291188 173.761111 110.080212 174.087936 110.902818 174.087936 
z
" clip-path="url(#p6e7ccc3b15)" style="fill: #f8766d; stroke: #f8766d; stroke-width: 0.886227"/>
    <path d="M 115.051097 175.675666 
C 115.873703 175.675666 116.662727 175.348841 117.244397 174.767171 
C 117.826067 174.185501 118.152891 173.396477 118.152891 172.573872 
C 118.152891 171.751266 117.826067 170.962242 117.244397 170.380572 
C 116.662727 169.798902 115.873703 169.472077 115.051097 169.472077 
C 114.228492 169.472077 113.439467 169.798902 112.857797 170.380572 
C 112.276128 170.962242 111.949303 171.751266 111.949303 172.573872 
C 111.949303 173.396477 112.276128 174.185501 112.857797 174.767171 
C 113.439467 175.348841 114.228492 175.675666 115.051097 175.675666 
z
" clip-path="url(#p6e7ccc3b15)" style="fill: #f8766d; stroke: #f8766d; stroke-width: 0.886227"/>
    <path d="M 115.051097 191.552968 
C 115.873703 191.552968 116.662727 191.226143 117.244397 190.644474 
C 117.826067 190.062804 118.152891 189.273779 118.152891 188.451174 
C 118.152891 187.628568 117.826067 186.839544 117.244397 186.257874 
C 116.662727 185.676204 115.873703 185.34938 115.051097 185.34938 
C 114.228492 185.34938 113.439467 185.676204 112.857797 186.257874 
C 112.276128 186.839544 111.949303 187.628568 111.949303 188.451174 
C 111.949303 189.273779 112.276128 190.062804 112.857797 190.644474 
C 113.439467 191.226143 114.228492 191.552968 115.051097 191.552968 
z
" clip-path="url(#p6e7ccc3b15)" style="fill: #f8766d; stroke: #f8766d; stroke-width: 0.886227"/>
    <path d="M 115.051097 183.878939 
C 115.873703 183.878939 116.662727 183.552114 117.244397 182.970444 
C 117.826067 182.388774 118.152891 181.59975 118.152891 180.777144 
C 118.152891 179.954539 117.826067 179.165515 117.244397 178.583845 
C 116.662727 178.002175 115.873703 177.67535 115.051097 177.67535 
C 114.228492 177.67535 113.439467 178.002175 112.857797 178.583845 
C 112.276128 179.165515 111.949303 179.954539 111.949303 180.777144 
C 111.949303 181.59975 112.276128 182.388774 112.857797 182.970444 
C 113.439467 183.552114 114.228492 183.878939 115.051097 183.878939 
z
" clip-path="url(#p6e7ccc3b15)" style="fill: #f8766d; stroke: #f8766d; stroke-width: 0.886227"/>
    <path d="M 115.051097 180.703478 
C 115.873703 180.703478 116.662727 180.376654 117.244397 179.794984 
C 117.826067 179.213314 118.152891 178.424289 118.152891 177.601684 
C 118.152891 176.779079 117.826067 175.990054 117.244397 175.408384 
C 116.662727 174.826714 115.873703 174.49989 115.051097 174.49989 
C 114.228492 174.49989 113.439467 174.826714 112.857797 175.408384 
C 112.276128 175.990054 111.949303 176.779079 111.949303 177.601684 
C 111.949303 178.424289 112.276128 179.213314 112.857797 179.794984 
C 113.439467 180.376654 114.228492 180.703478 115.051097 180.703478 
z
" clip-path="url(#p6e7ccc3b15)" style="fill: #f8766d; stroke: #f8766d; stroke-width: 0.886227"/>
    <path d="M 115.051097 184.672804 
C 115.873703 184.672804 116.662727 184.345979 117.244397 183.764309 
C 117.826067 183.182639 118.152891 182.393615 118.152891 181.57101 
C 118.152891 180.748404 117.826067 179.95938 117.244397 179.37771 
C 116.662727 178.79604 115.873703 178.469215 115.051097 178.469215 
C 114.228492 178.469215 113.439467 178.79604 112.857797 179.37771 
C 112.276128 179.95938 111.949303 180.748404 111.949303 181.57101 
C 111.949303 182.393615 112.276128 183.182639 112.857797 183.764309 
C 113.439467 184.345979 114.228492 184.672804 115.051097 184.672804 
z
" clip-path="url(#p6e7ccc3b15)" style="fill: #f8766d; stroke: #f8766d; stroke-width: 0.886227"/>
    <path d="M 102.606258 110.314105 
C 103.428864 110.314105 104.217888 109.98728 104.799558 109.40561 
C 105.381228 108.82394 105.708052 108.034916 105.708052 107.212311 
C 105.708052 106.389705 105.381228 105.600681 104.799558 105.019011 
C 104.217888 104.437341 103.428864 104.110516 102.606258 104.110516 
C 101.783653 104.110516 100.994628 104.437341 100.412958 105.019011 
C 99.831289 105.600681 99.504464 106.389705 99.504464 107.212311 
C 99.504464 108.034916 99.831289 108.82394 100.412958 109.40561 
C 100.994628 109.98728 101.783653 110.314105 102.606258 110.314105 
z
" clip-path="url(#p6e7ccc3b15)" style="fill: #f8766d; stroke: #f8766d; stroke-width: 0.886227"/>
    <path d="M 102.606258 110.578727 
C 103.428864 110.578727 104.217888 110.251902 104.799558 109.670232 
C 105.381228 109.088562 105.708052 108.299538 105.708052 107.476932 
C 105.708052 106.654327 105.381228 105.865302 104.799558 105.283633 
C 104.217888 104.701963 103.428864 104.375138 102.606258 104.375138 
C 101.783653 104.375138 100.994628 104.701963 100.412958 105.283633 
C 99.831289 105.865302 99.504464 106.654327 99.504464 107.476932 
C 99.504464 108.299538 99.831289 109.088562 100.412958 109.670232 
C 100.994628 110.251902 101.783653 110.578727 102.606258 110.578727 
z
" clip-path="url(#p6e7ccc3b15)" style="fill: #f8766d; stroke: #f8766d; stroke-width: 0.886227"/>
    <path d="M 144.089055 170.11861 
C 144.91166 170.11861 145.700685 169.791785 146.282355 169.210116 
C 146.864025 168.628446 147.190849 167.839421 147.190849 167.016816 
C 147.190849 166.19421 146.864025 165.405186 146.282355 164.823516 
C 145.700685 164.241846 144.91166 163.915022 144.089055 163.915022 
C 143.266449 163.915022 142.477425 164.241846 141.895755 164.823516 
C 141.314085 165.405186 140.987261 166.19421 140.987261 167.016816 
C 140.987261 167.839421 141.314085 168.628446 141.895755 169.210116 
C 142.477425 169.791785 143.266449 170.11861 144.089055 170.11861 
z
" clip-path="url(#p6e7ccc3b15)" style="fill: #f8766d; stroke: #f8766d; stroke-width: 0.886227"/>
    <path d="M 144.089055 166.413906 
C 144.91166 166.413906 145.700685 166.087082 146.282355 165.505412 
C 146.864025 164.923742 147.190849 164.134717 147.190849 163.312112 
C 147.190849 162.489506 146.864025 161.700482 146.282355 161.118812 
C 145.700685 160.537142 144.91166 160.210318 144.089055 160.210318 
C 143.266449 160.210318 142.477425 160.537142 141.895755 161.118812 
C 141.314085 161.700482 140.987261 162.489506 140.987261 163.312112 
C 140.987261 164.134717 141.314085 164.923742 141.895755 165.505412 
C 142.477425 166.087082 143.266449 166.413906 144.089055 166.413906 
z
" clip-path="url(#p6e7ccc3b15)" style="fill: #f8766d; stroke: #f8766d; stroke-width: 0.886227"/>
    <path d="M 276.834004 184.14356 
C 277.65661 184.14356 278.445634 183.816736 279.027304 183.235066 
C 279.608974 182.653396 279.935799 181.864372 279.935799 181.041766 
C 279.935799 180.219161 279.608974 179.430136 279.027304 178.848466 
C 278.445634 178.266797 277.65661 177.939972 276.834004 177.939972 
C 276.011399 177.939972 275.222375 178.266797 274.640705 178.848466 
C 274.059035 179.430136 273.73221 180.219161 273.73221 181.041766 
C 273.73221 181.864372 274.059035 182.653396 274.640705 183.235066 
C 275.222375 183.816736 276.011399 184.14356 276.834004 184.14356 
z
" clip-path="url(#p6e7ccc3b15)" style="fill: #f8766d; stroke: #f8766d; stroke-width: 0.886227"/>
    <path d="M 276.834004 198.433132 
C 277.65661 198.433132 278.445634 198.106308 279.027304 197.524638 
C 279.608974 196.942968 279.935799 196.153944 279.935799 195.331338 
C 279.935799 194.508733 279.608974 193.719708 279.027304 193.138038 
C 278.445634 192.556369 277.65661 192.229544 276.834004 192.229544 
C 276.011399 192.229544 275.222375 192.556369 274.640705 193.138038 
C 274.059035 193.719708 273.73221 194.508733 273.73221 195.331338 
C 273.73221 196.153944 274.059035 196.942968 274.640705 197.524638 
C 275.222375 198.106308 276.011399 198.433132 276.834004 198.433132 
z
" clip-path="url(#p6e7ccc3b15)" style="fill: #f8766d; stroke: #f8766d; stroke-width: 0.886227"/>
    <path d="M 276.834004 185.202047 
C 277.65661 185.202047 278.445634 184.875223 279.027304 184.293553 
C 279.608974 183.711883 279.935799 182.922858 279.935799 182.100253 
C 279.935799 181.277648 279.608974 180.488623 279.027304 179.906953 
C 278.445634 179.325283 277.65661 178.998459 276.834004 178.998459 
C 276.011399 178.998459 275.222375 179.325283 274.640705 179.906953 
C 274.059035 180.488623 273.73221 181.277648 273.73221 182.100253 
C 273.73221 182.922858 274.059035 183.711883 274.640705 184.293553 
C 275.222375 184.875223 276.011399 185.202047 276.834004 185.202047 
z
" clip-path="url(#p6e7ccc3b15)" style="fill: #f8766d; stroke: #f8766d; stroke-width: 0.886227"/>
    <path d="M 322.465081 155.564416 
C 323.287686 155.564416 324.076711 155.237592 324.658381 154.655922 
C 325.24005 154.074252 325.566875 153.285227 325.566875 152.462622 
C 325.566875 151.640017 325.24005 150.850992 324.658381 150.269322 
C 324.076711 149.687652 323.287686 149.360828 322.465081 149.360828 
C 321.642475 149.360828 320.853451 149.687652 320.271781 150.269322 
C 319.690111 150.850992 319.363287 151.640017 319.363287 152.462622 
C 319.363287 153.285227 319.690111 154.074252 320.271781 154.655922 
C 320.853451 155.237592 321.642475 155.564416 322.465081 155.564416 
z
" clip-path="url(#p6e7ccc3b15)" style="fill: #f8766d; stroke: #f8766d; stroke-width: 0.886227"/>
    <path d="M 322.465081 167.472393 
C 323.287686 167.472393 324.076711 167.145568 324.658381 166.563898 
C 325.24005 165.982229 325.566875 165.193204 325.566875 164.370599 
C 325.566875 163.547993 325.24005 162.758969 324.658381 162.177299 
C 324.076711 161.595629 323.287686 161.268805 322.465081 161.268805 
C 321.642475 161.268805 320.853451 161.595629 320.271781 162.177299 
C 319.690111 162.758969 319.363287 163.547993 319.363287 164.370599 
C 319.363287 165.193204 319.690111 165.982229 320.271781 166.563898 
C 320.853451 167.145568 321.642475 167.472393 322.465081 167.472393 
z
" clip-path="url(#p6e7ccc3b15)" style="fill: #f8766d; stroke: #f8766d; stroke-width: 0.886227"/>
   </g>
   <g id="PathCollection_4">
    <path d="M 53.873388 202.137836 
L 60.076976 202.137836 
L 60.076976 195.934248 
L 53.873388 195.934248 
z
" clip-path="url(#p6e7ccc3b15)" style="fill: #00bfc4; stroke: #00bfc4; stroke-width: 0.886227"/>
    <path d="M 91.207905 148.41963 
L 97.411493 148.41963 
L 97.411493 142.216042 
L 91.207905 142.216042 
z
" clip-path="url(#p6e7ccc3b15)" style="fill: #00bfc4; stroke: #00bfc4; stroke-width: 0.886227"/>
    <path d="M 91.207905 143.127196 
L 97.411493 143.127196 
L 97.411493 136.923608 
L 91.207905 136.923608 
z
" clip-path="url(#p6e7ccc3b15)" style="fill: #00bfc4; stroke: #00bfc4; stroke-width: 0.886227"/>
    <path d="M 124.394142 110.578727 
L 130.59773 110.578727 
L 130.59773 104.375138 
L 124.394142 104.375138 
z
" clip-path="url(#p6e7ccc3b15)" style="fill: #00bfc4; stroke: #00bfc4; stroke-width: 0.886227"/>
    <path d="M 124.394142 66.651524 
L 130.59773 66.651524 
L 130.59773 60.447935 
L 124.394142 60.447935 
z
" clip-path="url(#p6e7ccc3b15)" style="fill: #00bfc4; stroke: #00bfc4; stroke-width: 0.886227"/>
    <path d="M 124.394142 216.162787 
L 130.59773 216.162787 
L 130.59773 209.959198 
L 124.394142 209.959198 
z
" clip-path="url(#p6e7ccc3b15)" style="fill: #00bfc4; stroke: #00bfc4; stroke-width: 0.886227"/>
    <path d="M 128.542422 115.077295 
L 134.74601 115.077295 
L 134.74601 108.873707 
L 128.542422 108.873707 
z
" clip-path="url(#p6e7ccc3b15)" style="fill: #00bfc4; stroke: #00bfc4; stroke-width: 0.886227"/>
    <path d="M 128.542422 171.970962 
L 134.74601 171.970962 
L 134.74601 165.767373 
L 128.542422 165.767373 
z
" clip-path="url(#p6e7ccc3b15)" style="fill: #00bfc4; stroke: #00bfc4; stroke-width: 0.886227"/>
    <path d="M 136.838981 120.105108 
L 143.042569 120.105108 
L 143.042569 113.901519 
L 136.838981 113.901519 
z
" clip-path="url(#p6e7ccc3b15)" style="fill: #00bfc4; stroke: #00bfc4; stroke-width: 0.886227"/>
    <path d="M 145.13554 171.970962 
L 151.339129 171.970962 
L 151.339129 165.767373 
L 145.13554 165.767373 
z
" clip-path="url(#p6e7ccc3b15)" style="fill: #00bfc4; stroke: #00bfc4; stroke-width: 0.886227"/>
    <path d="M 145.13554 171.177097 
L 151.339129 171.177097 
L 151.339129 164.973508 
L 145.13554 164.973508 
z
" clip-path="url(#p6e7ccc3b15)" style="fill: #00bfc4; stroke: #00bfc4; stroke-width: 0.886227"/>
    <path d="M 145.13554 181.497343 
L 151.339129 181.497343 
L 151.339129 175.293755 
L 145.13554 175.293755 
z
" clip-path="url(#p6e7ccc3b15)" style="fill: #00bfc4; stroke: #00bfc4; stroke-width: 0.886227"/>
    <path d="M 145.13554 180.438857 
L 151.339129 180.438857 
L 151.339129 174.235268 
L 145.13554 174.235268 
z
" clip-path="url(#p6e7ccc3b15)" style="fill: #00bfc4; stroke: #00bfc4; stroke-width: 0.886227"/>
    <path d="M 149.28382 144.450305 
L 155.487409 144.450305 
L 155.487409 138.246716 
L 149.28382 138.246716 
z
" clip-path="url(#p6e7ccc3b15)" style="fill: #00bfc4; stroke: #00bfc4; stroke-width: 0.886227"/>
    <path d="M 215.656295 143.65644 
L 221.859883 143.65644 
L 221.859883 137.452851 
L 215.656295 137.452851 
z
" clip-path="url(#p6e7ccc3b15)" style="fill: #00bfc4; stroke: #00bfc4; stroke-width: 0.886227"/>
    <path d="M 215.656295 146.302657 
L 221.859883 146.302657 
L 221.859883 140.099068 
L 215.656295 140.099068 
z
" clip-path="url(#p6e7ccc3b15)" style="fill: #00bfc4; stroke: #00bfc4; stroke-width: 0.886227"/>
    <path d="M 215.656295 154.241308 
L 221.859883 154.241308 
L 221.859883 148.037719 
L 215.656295 148.037719 
z
" clip-path="url(#p6e7ccc3b15)" style="fill: #00bfc4; stroke: #00bfc4; stroke-width: 0.886227"/>
   </g>
   <g id="LineCollection_1">
    <path d="M 42.041375 167.281437 
L 370.585125 167.281437 
" clip-path="url(#p6e7ccc3b15)" style="fill: none; stroke: #000000; stroke-width: 0.886227"/>
   </g>
  </g>
  <g id="text_10">
   <!-- Language dominance effects by paradigm -->
   <g transform="translate(83.407844 14.211) scale(0.132 -0.132)">
    <defs>
     <path id="Helvetica-4c" d="M 488 4591 
L 1109 4591 
L 1109 547 
L 3434 547 
L 3434 0 
L 488 0 
L 488 4591 
z
" transform="scale(0.015625)"/>
     <path id="Helvetica-61" d="M 844 891 
Q 844 647 1022 506 
Q 1200 366 1444 366 
Q 1741 366 2019 503 
Q 2488 731 2488 1250 
L 2488 1703 
Q 2384 1638 2221 1594 
Q 2059 1550 1903 1531 
L 1563 1488 
Q 1256 1447 1103 1359 
Q 844 1213 844 891 
z
M 2206 2028 
Q 2400 2053 2466 2191 
Q 2503 2266 2503 2406 
Q 2503 2694 2298 2823 
Q 2094 2953 1713 2953 
Q 1272 2953 1088 2716 
Q 984 2584 953 2325 
L 428 2325 
Q 444 2944 830 3186 
Q 1216 3428 1725 3428 
Q 2316 3428 2684 3203 
Q 3050 2978 3050 2503 
L 3050 575 
Q 3050 488 3086 434 
Q 3122 381 3238 381 
Q 3275 381 3322 386 
Q 3369 391 3422 400 
L 3422 -16 
Q 3291 -53 3222 -62 
Q 3153 -72 3034 -72 
Q 2744 -72 2613 134 
Q 2544 244 2516 444 
Q 2344 219 2022 53 
Q 1700 -113 1313 -113 
Q 847 -113 551 170 
Q 256 453 256 878 
Q 256 1344 547 1600 
Q 838 1856 1309 1916 
L 2206 2028 
z
M 1741 3428 
L 1741 3428 
z
" transform="scale(0.015625)"/>
     <path id="Helvetica-6e" d="M 413 3347 
L 947 3347 
L 947 2872 
Q 1184 3166 1450 3294 
Q 1716 3422 2041 3422 
Q 2753 3422 3003 2925 
Q 3141 2653 3141 2147 
L 3141 0 
L 2569 0 
L 2569 2109 
Q 2569 2416 2478 2603 
Q 2328 2916 1934 2916 
Q 1734 2916 1606 2875 
Q 1375 2806 1200 2600 
Q 1059 2434 1017 2257 
Q 975 2081 975 1753 
L 975 0 
L 413 0 
L 413 3347 
z
M 1734 3428 
L 1734 3428 
z
" transform="scale(0.015625)"/>
     <path id="Helvetica-67" d="M 1594 3406 
Q 1988 3406 2281 3213 
Q 2441 3103 2606 2894 
L 2606 3316 
L 3125 3316 
L 3125 272 
Q 3125 -366 2938 -734 
Q 2588 -1416 1616 -1416 
Q 1075 -1416 706 -1173 
Q 338 -931 294 -416 
L 866 -416 
Q 906 -641 1028 -763 
Q 1219 -950 1628 -950 
Q 2275 -950 2475 -494 
Q 2594 -225 2584 466 
Q 2416 209 2178 84 
Q 1941 -41 1550 -41 
Q 1006 -41 598 345 
Q 191 731 191 1622 
Q 191 2463 602 2934 
Q 1013 3406 1594 3406 
z
M 2606 1688 
Q 2606 2309 2350 2609 
Q 2094 2909 1697 2909 
Q 1103 2909 884 2353 
Q 769 2056 769 1575 
Q 769 1009 998 714 
Q 1228 419 1616 419 
Q 2222 419 2469 966 
Q 2606 1275 2606 1688 
z
M 1659 3428 
L 1659 3428 
z
" transform="scale(0.015625)"/>
     <path id="Helvetica-75" d="M 975 3347 
L 975 1125 
Q 975 869 1056 706 
Q 1206 406 1616 406 
Q 2203 406 2416 931 
Q 2531 1213 2531 1703 
L 2531 3347 
L 3094 3347 
L 3094 0 
L 2563 0 
L 2569 494 
Q 2459 303 2297 172 
Q 1975 -91 1516 -91 
Q 800 -91 541 388 
Q 400 644 400 1072 
L 400 3347 
L 975 3347 
z
M 1747 3428 
L 1747 3428 
z
" transform="scale(0.015625)"/>
     <path id="Helvetica-65" d="M 1806 3422 
Q 2163 3422 2497 3255 
Q 2831 3088 3006 2822 
Q 3175 2569 3231 2231 
Q 3281 2000 3281 1494 
L 828 1494 
Q 844 984 1069 676 
Q 1294 369 1766 369 
Q 2206 369 2469 659 
Q 2619 828 2681 1050 
L 3234 1050 
Q 3213 866 3089 639 
Q 2966 413 2813 269 
Q 2556 19 2178 -69 
Q 1975 -119 1719 -119 
Q 1094 -119 659 336 
Q 225 791 225 1609 
Q 225 2416 662 2919 
Q 1100 3422 1806 3422 
z
M 2703 1941 
Q 2669 2306 2544 2525 
Q 2313 2931 1772 2931 
Q 1384 2931 1121 2651 
Q 859 2372 844 1941 
L 2703 1941 
z
M 1753 3428 
L 1753 3428 
z
" transform="scale(0.015625)"/>
     <path id="Helvetica-20" transform="scale(0.015625)"/>
     <path id="Helvetica-64" d="M 769 1634 
Q 769 1097 997 734 
Q 1225 372 1728 372 
Q 2119 372 2370 708 
Q 2622 1044 2622 1672 
Q 2622 2306 2362 2611 
Q 2103 2916 1722 2916 
Q 1297 2916 1033 2591 
Q 769 2266 769 1634 
z
M 1616 3406 
Q 2000 3406 2259 3244 
Q 2409 3150 2600 2916 
L 2600 4606 
L 3141 4606 
L 3141 0 
L 2634 0 
L 2634 466 
Q 2438 156 2169 18 
Q 1900 -119 1553 -119 
Q 994 -119 584 351 
Q 175 822 175 1603 
Q 175 2334 548 2870 
Q 922 3406 1616 3406 
z
" transform="scale(0.015625)"/>
     <path id="Helvetica-6f" d="M 1741 363 
Q 2300 363 2508 786 
Q 2716 1209 2716 1728 
Q 2716 2197 2566 2491 
Q 2328 2953 1747 2953 
Q 1231 2953 997 2559 
Q 763 2166 763 1609 
Q 763 1075 997 719 
Q 1231 363 1741 363 
z
M 1763 3444 
Q 2409 3444 2856 3012 
Q 3303 2581 3303 1744 
Q 3303 934 2909 406 
Q 2516 -122 1688 -122 
Q 997 -122 590 345 
Q 184 813 184 1600 
Q 184 2444 612 2944 
Q 1041 3444 1763 3444 
z
M 1744 3428 
L 1744 3428 
z
" transform="scale(0.015625)"/>
     <path id="Helvetica-6d" d="M 413 3347 
L 969 3347 
L 969 2872 
Q 1169 3119 1331 3231 
Q 1609 3422 1963 3422 
Q 2363 3422 2606 3225 
Q 2744 3113 2856 2894 
Q 3044 3163 3297 3292 
Q 3550 3422 3866 3422 
Q 4541 3422 4784 2934 
Q 4916 2672 4916 2228 
L 4916 0 
L 4331 0 
L 4331 2325 
Q 4331 2659 4164 2784 
Q 3997 2909 3756 2909 
Q 3425 2909 3186 2687 
Q 2947 2466 2947 1947 
L 2947 0 
L 2375 0 
L 2375 2184 
Q 2375 2525 2294 2681 
Q 2166 2916 1816 2916 
Q 1497 2916 1236 2669 
Q 975 2422 975 1775 
L 975 0 
L 413 0 
L 413 3347 
z
" transform="scale(0.015625)"/>
     <path id="Helvetica-69" d="M 413 3331 
L 984 3331 
L 984 0 
L 413 0 
L 413 3331 
z
M 413 4591 
L 984 4591 
L 984 3953 
L 413 3953 
L 413 4591 
z
" transform="scale(0.015625)"/>
     <path id="Helvetica-63" d="M 1703 3444 
Q 2269 3444 2623 3169 
Q 2978 2894 3050 2222 
L 2503 2222 
Q 2453 2531 2275 2736 
Q 2097 2941 1703 2941 
Q 1166 2941 934 2416 
Q 784 2075 784 1575 
Q 784 1072 996 728 
Q 1209 384 1666 384 
Q 2016 384 2220 598 
Q 2425 813 2503 1184 
L 3050 1184 
Q 2956 519 2581 211 
Q 2206 -97 1622 -97 
Q 966 -97 575 383 
Q 184 863 184 1581 
Q 184 2463 612 2953 
Q 1041 3444 1703 3444 
z
M 1616 3428 
L 1616 3428 
z
" transform="scale(0.015625)"/>
     <path id="Helvetica-66" d="M 553 3856 
Q 566 4206 675 4369 
Q 872 4656 1434 4656 
Q 1488 4656 1544 4653 
Q 1600 4650 1672 4644 
L 1672 4131 
Q 1584 4138 1545 4139 
Q 1506 4141 1472 4141 
Q 1216 4141 1166 4008 
Q 1116 3875 1116 3331 
L 1672 3331 
L 1672 2888 
L 1109 2888 
L 1109 0 
L 553 0 
L 553 2888 
L 88 2888 
L 88 3331 
L 553 3331 
L 553 3856 
z
" transform="scale(0.015625)"/>
     <path id="Helvetica-74" d="M 525 4281 
L 1094 4281 
L 1094 3347 
L 1628 3347 
L 1628 2888 
L 1094 2888 
L 1094 703 
Q 1094 528 1213 469 
Q 1278 434 1431 434 
Q 1472 434 1519 436 
Q 1566 438 1628 444 
L 1628 0 
Q 1531 -28 1426 -40 
Q 1322 -53 1200 -53 
Q 806 -53 665 148 
Q 525 350 525 672 
L 525 2888 
L 72 2888 
L 72 3347 
L 525 3347 
L 525 4281 
z
" transform="scale(0.015625)"/>
     <path id="Helvetica-73" d="M 747 1050 
Q 772 769 888 619 
Q 1100 347 1625 347 
Q 1938 347 2175 483 
Q 2413 619 2413 903 
Q 2413 1119 2222 1231 
Q 2100 1300 1741 1391 
L 1294 1503 
Q 866 1609 663 1741 
Q 300 1969 300 2372 
Q 300 2847 642 3140 
Q 984 3434 1563 3434 
Q 2319 3434 2653 2991 
Q 2863 2709 2856 2384 
L 2325 2384 
Q 2309 2575 2191 2731 
Q 1997 2953 1519 2953 
Q 1200 2953 1036 2831 
Q 872 2709 872 2509 
Q 872 2291 1088 2159 
Q 1213 2081 1456 2022 
L 1828 1931 
Q 2434 1784 2641 1647 
Q 2969 1431 2969 969 
Q 2969 522 2630 197 
Q 2291 -128 1597 -128 
Q 850 -128 539 211 
Q 228 550 206 1050 
L 747 1050 
z
M 1578 3428 
L 1578 3428 
z
" transform="scale(0.015625)"/>
     <path id="Helvetica-62" d="M 369 4606 
L 916 4606 
L 916 2941 
Q 1100 3181 1356 3307 
Q 1613 3434 1913 3434 
Q 2538 3434 2927 3004 
Q 3316 2575 3316 1738 
Q 3316 944 2931 419 
Q 2547 -106 1866 -106 
Q 1484 -106 1222 78 
Q 1066 188 888 428 
L 888 0 
L 369 0 
L 369 4606 
z
M 1831 391 
Q 2288 391 2514 753 
Q 2741 1116 2741 1709 
Q 2741 2238 2514 2584 
Q 2288 2931 1847 2931 
Q 1463 2931 1173 2647 
Q 884 2363 884 1709 
Q 884 1238 1003 944 
Q 1225 391 1831 391 
z
" transform="scale(0.015625)"/>
     <path id="Helvetica-79" d="M 2503 3347 
L 3125 3347 
Q 3006 3025 2597 1878 
Q 2291 1016 2084 472 
Q 1597 -809 1397 -1090 
Q 1197 -1372 709 -1372 
Q 591 -1372 527 -1362 
Q 463 -1353 369 -1328 
L 369 -816 
Q 516 -856 581 -865 
Q 647 -875 697 -875 
Q 853 -875 926 -823 
Q 1000 -772 1050 -697 
Q 1066 -672 1162 -440 
Q 1259 -209 1303 -97 
L 66 3347 
L 703 3347 
L 1600 622 
L 2503 3347 
z
M 1597 3428 
L 1597 3428 
z
" transform="scale(0.015625)"/>
     <path id="Helvetica-70" d="M 1825 378 
Q 2219 378 2480 708 
Q 2741 1038 2741 1694 
Q 2741 2094 2625 2381 
Q 2406 2934 1825 2934 
Q 1241 2934 1025 2350 
Q 909 2038 909 1556 
Q 909 1169 1025 897 
Q 1244 378 1825 378 
z
M 369 3331 
L 916 3331 
L 916 2888 
Q 1084 3116 1284 3241 
Q 1569 3428 1953 3428 
Q 2522 3428 2919 2992 
Q 3316 2556 3316 1747 
Q 3316 653 2744 184 
Q 2381 -113 1900 -113 
Q 1522 -113 1266 53 
Q 1116 147 931 375 
L 931 -1334 
L 369 -1334 
L 369 3331 
z
" transform="scale(0.015625)"/>
     <path id="Helvetica-72" d="M 428 3347 
L 963 3347 
L 963 2769 
Q 1028 2938 1284 3180 
Q 1541 3422 1875 3422 
Q 1891 3422 1928 3419 
Q 1966 3416 2056 3406 
L 2056 2813 
Q 2006 2822 1964 2825 
Q 1922 2828 1872 2828 
Q 1447 2828 1219 2554 
Q 991 2281 991 1925 
L 991 0 
L 428 0 
L 428 3347 
z
" transform="scale(0.015625)"/>
    </defs>
    <use xlink:href="#Helvetica-4c"/>
    <use xlink:href="#Helvetica-61" transform="translate(55.615234 0)"/>
    <use xlink:href="#Helvetica-6e" transform="translate(111.230469 0)"/>
    <use xlink:href="#Helvetica-67" transform="translate(166.845703 0)"/>
    <use xlink:href="#Helvetica-75" transform="translate(222.460938 0)"/>
    <use xlink:href="#Helvetica-61" transform="translate(278.076172 0)"/>
    <use xlink:href="#Helvetica-67" transform="translate(333.691406 0)"/>
    <use xlink:href="#Helvetica-65" transform="translate(389.306641 0)"/>
    <use xlink:href="#Helvetica-20" transform="translate(444.921875 0)"/>
    <use xlink:href="#Helvetica-64" transform="translate(472.705078 0)"/>
    <use xlink:href="#Helvetica-6f" transform="translate(528.320312 0)"/>
    <use xlink:href="#Helvetica-6d" transform="translate(583.935547 0)"/>
    <use xlink:href="#Helvetica-69" transform="translate(667.236328 0)"/>
    <use xlink:href="#Helvetica-6e" transform="translate(689.453125 0)"/>
    <use xlink:href="#Helvetica-61" transform="translate(745.068359 0)"/>
    <use xlink:href="#Helvetica-6e" transform="translate(800.683594 0)"/>
    <use xlink:href="#Helvetica-63" transform="translate(856.298828 0)"/>
    <use xlink:href="#Helvetica-65" transform="translate(906.298828 0)"/>
    <use xlink:href="#Helvetica-20" transform="translate(961.914062 0)"/>
    <use xlink:href="#Helvetica-65" transform="translate(989.697266 0)"/>
    <use xlink:href="#Helvetica-66" transform="translate(1045.3125 0)"/>
    <use xlink:href="#Helvetica-66" transform="translate(1073.095703 0)"/>
    <use xlink:href="#Helvetica-65" transform="translate(1100.878906 0)"/>
    <use xlink:href="#Helvetica-63" transform="translate(1156.494141 0)"/>
    <use xlink:href="#Helvetica-74" transform="translate(1206.494141 0)"/>
    <use xlink:href="#Helvetica-73" transform="translate(1234.277344 0)"/>
    <use xlink:href="#Helvetica-20" transform="translate(1284.277344 0)"/>
    <use xlink:href="#Helvetica-62" transform="translate(1312.060547 0)"/>
    <use xlink:href="#Helvetica-79" transform="translate(1367.675781 0)"/>
    <use xlink:href="#Helvetica-20" transform="translate(1417.675781 0)"/>
    <use xlink:href="#Helvetica-70" transform="translate(1445.458984 0)"/>
    <use xlink:href="#Helvetica-61" transform="translate(1501.074219 0)"/>
    <use xlink:href="#Helvetica-72" transform="translate(1556.689453 0)"/>
    <use xlink:href="#Helvetica-61" transform="translate(1589.990234 0)"/>
    <use xlink:href="#Helvetica-64" transform="translate(1645.605469 0)"/>
    <use xlink:href="#Helvetica-69" transform="translate(1701.220703 0)"/>
    <use xlink:href="#Helvetica-67" transform="translate(1723.4375 0)"/>
    <use xlink:href="#Helvetica-6d" transform="translate(1779.052734 0)"/>
   </g>
  </g>
  <g id="text_11">
   <!-- Number of Study -->
   <g transform="translate(165.046922 338.633875) scale(0.11 -0.11)">
    <defs>
     <path id="Helvetica-4e" d="M 488 4591 
L 1222 4591 
L 3541 872 
L 3541 4591 
L 4131 4591 
L 4131 0 
L 3434 0 
L 1081 3716 
L 1081 0 
L 488 0 
L 488 4591 
z
M 2269 4591 
L 2269 4591 
z
" transform="scale(0.015625)"/>
     <path id="Helvetica-53" d="M 894 1481 
Q 916 1091 1078 847 
Q 1388 391 2169 391 
Q 2519 391 2806 491 
Q 3363 684 3363 1184 
Q 3363 1559 3128 1719 
Q 2891 1875 2384 1991 
L 1763 2131 
Q 1153 2269 900 2434 
Q 463 2722 463 3294 
Q 463 3913 891 4309 
Q 1319 4706 2103 4706 
Q 2825 4706 3329 4357 
Q 3834 4009 3834 3244 
L 3250 3244 
Q 3203 3613 3050 3809 
Q 2766 4169 2084 4169 
Q 1534 4169 1293 3937 
Q 1053 3706 1053 3400 
Q 1053 3063 1334 2906 
Q 1519 2806 2169 2656 
L 2813 2509 
Q 3278 2403 3531 2219 
Q 3969 1897 3969 1284 
Q 3969 522 3414 194 
Q 2859 -134 2125 -134 
Q 1269 -134 784 303 
Q 300 738 309 1481 
L 894 1481 
z
M 2150 4716 
L 2150 4716 
z
" transform="scale(0.015625)"/>
    </defs>
    <use xlink:href="#Helvetica-4e"/>
    <use xlink:href="#Helvetica-75" transform="translate(72.216797 0)"/>
    <use xlink:href="#Helvetica-6d" transform="translate(127.832031 0)"/>
    <use xlink:href="#Helvetica-62" transform="translate(211.132812 0)"/>
    <use xlink:href="#Helvetica-65" transform="translate(266.748047 0)"/>
    <use xlink:href="#Helvetica-72" transform="translate(322.363281 0)"/>
    <use xlink:href="#Helvetica-20" transform="translate(355.664062 0)"/>
    <use xlink:href="#Helvetica-6f" transform="translate(383.447266 0)"/>
    <use xlink:href="#Helvetica-66" transform="translate(439.0625 0)"/>
    <use xlink:href="#Helvetica-20" transform="translate(466.845703 0)"/>
    <use xlink:href="#Helvetica-53" transform="translate(494.628906 0)"/>
    <use xlink:href="#Helvetica-74" transform="translate(561.328125 0)"/>
    <use xlink:href="#Helvetica-75" transform="translate(589.111328 0)"/>
    <use xlink:href="#Helvetica-64" transform="translate(644.726562 0)"/>
    <use xlink:href="#Helvetica-79" transform="translate(700.341797 0)"/>
   </g>
  </g>
  <g id="text_12">
   <!-- dominant-less dominant (ms) -->
   <g transform="translate(12.579562 238.191047) rotate(-90) scale(0.11 -0.11)">
    <defs>
     <path id="Helvetica-6c" d="M 428 4591 
L 991 4591 
L 991 0 
L 428 0 
L 428 4591 
z
" transform="scale(0.015625)"/>
     <path id="Helvetica-28" d="M 1894 4666 
Q 1403 3713 1256 3263 
Q 1034 2578 1034 1681 
Q 1034 775 1288 25 
Q 1444 -438 1903 -1306 
L 1525 -1306 
Q 1069 -594 959 -397 
Q 850 -200 722 138 
Q 547 600 478 1125 
Q 444 1397 444 1644 
Q 444 2569 734 3291 
Q 919 3750 1503 4666 
L 1894 4666 
z
" transform="scale(0.015625)"/>
     <path id="Helvetica-29" d="M 222 -1306 
Q 719 -338 863 106 
Q 1081 778 1081 1681 
Q 1081 2584 828 3334 
Q 672 3797 213 4666 
L 591 4666 
Q 1072 3897 1173 3717 
Q 1275 3538 1394 3222 
Q 1544 2831 1608 2450 
Q 1672 2069 1672 1716 
Q 1672 791 1378 66 
Q 1194 -400 613 -1306 
L 222 -1306 
z
" transform="scale(0.015625)"/>
    </defs>
    <use xlink:href="#Helvetica-64"/>
    <use xlink:href="#Helvetica-6f" transform="translate(55.615234 0)"/>
    <use xlink:href="#Helvetica-6d" transform="translate(111.230469 0)"/>
    <use xlink:href="#Helvetica-69" transform="translate(194.53125 0)"/>
    <use xlink:href="#Helvetica-6e" transform="translate(216.748047 0)"/>
    <use xlink:href="#Helvetica-61" transform="translate(272.363281 0)"/>
    <use xlink:href="#Helvetica-6e" transform="translate(327.978516 0)"/>
    <use xlink:href="#Helvetica-74" transform="translate(383.59375 0)"/>
    <use xlink:href="#Helvetica-2d" transform="translate(411.376953 0)"/>
    <use xlink:href="#Helvetica-6c" transform="translate(444.677734 0)"/>
    <use xlink:href="#Helvetica-65" transform="translate(466.894531 0)"/>
    <use xlink:href="#Helvetica-73" transform="translate(522.509766 0)"/>
    <use xlink:href="#Helvetica-73" transform="translate(572.509766 0)"/>
    <use xlink:href="#Helvetica-20" transform="translate(622.509766 0)"/>
    <use xlink:href="#Helvetica-64" transform="translate(650.292969 0)"/>
    <use xlink:href="#Helvetica-6f" transform="translate(705.908203 0)"/>
    <use xlink:href="#Helvetica-6d" transform="translate(761.523438 0)"/>
    <use xlink:href="#Helvetica-69" transform="translate(844.824219 0)"/>
    <use xlink:href="#Helvetica-6e" transform="translate(867.041016 0)"/>
    <use xlink:href="#Helvetica-61" transform="translate(922.65625 0)"/>
    <use xlink:href="#Helvetica-6e" transform="translate(978.271484 0)"/>
    <use xlink:href="#Helvetica-74" transform="translate(1033.886719 0)"/>
    <use xlink:href="#Helvetica-20" transform="translate(1061.669922 0)"/>
    <use xlink:href="#Helvetica-28" transform="translate(1089.453125 0)"/>
    <use xlink:href="#Helvetica-6d" transform="translate(1122.753906 0)"/>
    <use xlink:href="#Helvetica-73" transform="translate(1206.054688 0)"/>
    <use xlink:href="#Helvetica-29" transform="translate(1256.054688 0)"/>
   </g>
  </g>
  <g id="patch_4">
   <path d="M 384.409125 209.000594 
L 456.192 209.000594 
L 456.192 125.562281 
L 384.409125 125.562281 
z
" style="fill: #ffffff"/>
  </g>
  <g id="text_13">
   <!-- Paradigm -->
   <g transform="translate(385.409125 134.478844) scale(0.11 -0.11)">
    <defs>
     <path id="Helvetica-50" d="M 547 4591 
L 2613 4591 
Q 3225 4591 3600 4245 
Q 3975 3900 3975 3275 
Q 3975 2738 3640 2339 
Q 3306 1941 2613 1941 
L 1169 1941 
L 1169 0 
L 547 0 
L 547 4591 
z
M 3347 3272 
Q 3347 3778 2972 3959 
Q 2766 4056 2406 4056 
L 1169 4056 
L 1169 2466 
L 2406 2466 
Q 2825 2466 3086 2644 
Q 3347 2822 3347 3272 
z
" transform="scale(0.015625)"/>
    </defs>
    <use xlink:href="#Helvetica-50"/>
    <use xlink:href="#Helvetica-61" transform="translate(66.699219 0)"/>
    <use xlink:href="#Helvetica-72" transform="translate(122.314453 0)"/>
    <use xlink:href="#Helvetica-61" transform="translate(155.615234 0)"/>
    <use xlink:href="#Helvetica-64" transform="translate(211.230469 0)"/>
    <use xlink:href="#Helvetica-69" transform="translate(266.845703 0)"/>
    <use xlink:href="#Helvetica-67" transform="translate(289.0625 0)"/>
    <use xlink:href="#Helvetica-6d" transform="translate(344.677734 0)"/>
   </g>
  </g>
  <g id="patch_5">
   <path d="M 385.409125 154.480594 
L 401.249125 154.480594 
L 401.249125 138.640594 
L 385.409125 138.640594 
z
" clip-path="url(#p99d0ee67f7)" style="fill: #ebebeb"/>
  </g>
  <g id="line2d_29">
   <path d="M 393.329125 146.560594 
" clip-path="url(#p99d0ee67f7)" style="fill: none; stroke: #1f77b4; stroke-width: 1.5; stroke-linecap: square"/>
   <defs>
    <path id="m7f39c092f1" d="M 0 3.101794 
C 0.822605 3.101794 1.61163 2.77497 2.1933 2.1933 
C 2.77497 1.61163 3.101794 0.822605 3.101794 0 
C 3.101794 -0.822605 2.77497 -1.61163 2.1933 -2.1933 
C 1.61163 -2.77497 0.822605 -3.101794 0 -3.101794 
C -0.822605 -3.101794 -1.61163 -2.77497 -2.1933 -2.1933 
C -2.77497 -1.61163 -3.101794 -0.822605 -3.101794 0 
C -3.101794 0.822605 -2.77497 1.61163 -2.1933 2.1933 
C -1.61163 2.77497 -0.822605 3.101794 0 3.101794 
z
" style="stroke: #f8766d; stroke-width: 0.886227"/>
   </defs>
   <g clip-path="url(#p99d0ee67f7)">
    <use xlink:href="#m7f39c092f1" x="393.329125" y="146.560594" style="fill: #f8766d; stroke: #f8766d; stroke-width: 0.886227"/>
   </g>
  </g>
  <g id="text_14">
   <!-- AR -->
   <g transform="translate(404.321125 148.799781) scale(0.088 -0.088)">
    <defs>
     <path id="Helvetica-41" d="M 2844 1881 
L 2147 3909 
L 1406 1881 
L 2844 1881 
z
M 1822 4591 
L 2525 4591 
L 4191 0 
L 3509 0 
L 3044 1375 
L 1228 1375 
L 731 0 
L 94 0 
L 1822 4591 
z
" transform="scale(0.015625)"/>
     <path id="Helvetica-52" d="M 2622 2488 
Q 3059 2488 3314 2663 
Q 3569 2838 3569 3294 
Q 3569 3784 3213 3963 
Q 3022 4056 2703 4056 
L 1184 4056 
L 1184 2488 
L 2622 2488 
z
M 563 4591 
L 2688 4591 
Q 3213 4591 3553 4438 
Q 4200 4144 4200 3353 
Q 4200 2941 4029 2678 
Q 3859 2416 3553 2256 
Q 3822 2147 3958 1969 
Q 4094 1791 4109 1391 
L 4131 775 
Q 4141 513 4175 384 
Q 4231 166 4375 103 
L 4375 0 
L 3613 0 
Q 3581 59 3562 153 
Q 3544 247 3531 516 
L 3494 1281 
Q 3472 1731 3159 1884 
Q 2981 1969 2600 1969 
L 1184 1969 
L 1184 0 
L 563 0 
L 563 4591 
z
" transform="scale(0.015625)"/>
    </defs>
    <use xlink:href="#Helvetica-41"/>
    <use xlink:href="#Helvetica-52" transform="translate(66.699219 0)"/>
   </g>
  </g>
  <g id="patch_6">
   <path d="M 385.409125 172.320594 
L 401.249125 172.320594 
L 401.249125 156.480594 
L 385.409125 156.480594 
z
" clip-path="url(#p1b609f838c)" style="fill: #ebebeb"/>
  </g>
  <g id="line2d_30">
   <path d="M 393.329125 164.400594 
" clip-path="url(#p1b609f838c)" style="fill: none; stroke: #1f77b4; stroke-width: 1.5; stroke-linecap: square"/>
   <defs>
    <path id="mdc6bae209d" d="M 0 -3.101794 
L -3.101794 3.101794 
L 3.101794 3.101794 
z
" style="stroke: #7cae00; stroke-width: 0.886227; stroke-linejoin: miter"/>
   </defs>
   <g clip-path="url(#p1b609f838c)">
    <use xlink:href="#mdc6bae209d" x="393.329125" y="164.400594" style="fill: #7cae00; stroke: #7cae00; stroke-width: 0.886227; stroke-linejoin: miter"/>
   </g>
  </g>
  <g id="text_15">
   <!-- cued -->
   <g transform="translate(404.321125 166.639781) scale(0.088 -0.088)">
    <use xlink:href="#Helvetica-63"/>
    <use xlink:href="#Helvetica-75" transform="translate(50 0)"/>
    <use xlink:href="#Helvetica-65" transform="translate(105.615234 0)"/>
    <use xlink:href="#Helvetica-64" transform="translate(161.230469 0)"/>
   </g>
  </g>
  <g id="patch_7">
   <path d="M 385.409125 190.160594 
L 401.249125 190.160594 
L 401.249125 174.320594 
L 385.409125 174.320594 
z
" clip-path="url(#p5e5ed8ba73)" style="fill: #ebebeb"/>
  </g>
  <g id="line2d_31">
   <path d="M 393.329125 182.240594 
" clip-path="url(#p5e5ed8ba73)" style="fill: none; stroke: #1f77b4; stroke-width: 1.5; stroke-linecap: square"/>
   <defs>
    <path id="me34be1b77d" d="M -3.101794 3.101794 
L 3.101794 3.101794 
L 3.101794 -3.101794 
L -3.101794 -3.101794 
z
" style="stroke: #00bfc4; stroke-width: 0.886227; stroke-linejoin: miter"/>
   </defs>
   <g clip-path="url(#p5e5ed8ba73)">
    <use xlink:href="#me34be1b77d" x="393.329125" y="182.240594" style="fill: #00bfc4; stroke: #00bfc4; stroke-width: 0.886227; stroke-linejoin: miter"/>
   </g>
  </g>
  <g id="text_16">
   <!-- voluntary -->
   <g transform="translate(404.321125 184.453656) scale(0.088 -0.088)">
    <defs>
     <path id="Helvetica-76" d="M 688 3347 
L 1581 622 
L 2516 3347 
L 3131 3347 
L 1869 0 
L 1269 0 
L 34 3347 
L 688 3347 
z
" transform="scale(0.015625)"/>
    </defs>
    <use xlink:href="#Helvetica-76"/>
    <use xlink:href="#Helvetica-6f" transform="translate(50 0)"/>
    <use xlink:href="#Helvetica-6c" transform="translate(105.615234 0)"/>
    <use xlink:href="#Helvetica-75" transform="translate(127.832031 0)"/>
    <use xlink:href="#Helvetica-6e" transform="translate(183.447266 0)"/>
    <use xlink:href="#Helvetica-74" transform="translate(239.0625 0)"/>
    <use xlink:href="#Helvetica-61" transform="translate(266.845703 0)"/>
    <use xlink:href="#Helvetica-72" transform="translate(322.460938 0)"/>
    <use xlink:href="#Helvetica-79" transform="translate(355.761719 0)"/>
   </g>
  </g>
  <g id="patch_8">
   <path d="M 385.409125 208.000594 
L 401.249125 208.000594 
L 401.249125 192.160594 
L 385.409125 192.160594 
z
" clip-path="url(#pf68b199eba)" style="fill: #ebebeb"/>
  </g>
  <g id="line2d_32">
   <path d="M 393.329125 200.080594 
" clip-path="url(#pf68b199eba)" style="fill: none; stroke: #1f77b4; stroke-width: 1.5; stroke-linecap: square"/>
   <defs>
    <path id="m68126c80ec" d="M -0 4.386599 
L 4.386599 0 
L 0 -4.386599 
L -4.386599 -0 
z
" style="stroke: #c77cff; stroke-width: 0.886227; stroke-linejoin: miter"/>
   </defs>
   <g clip-path="url(#pf68b199eba)">
    <use xlink:href="#m68126c80ec" x="393.329125" y="200.080594" style="fill: #c77cff; stroke: #c77cff; stroke-width: 0.886227; stroke-linejoin: miter"/>
   </g>
  </g>
  <g id="text_17">
   <!-- word reading -->
   <g transform="translate(404.321125 202.273719) scale(0.088 -0.088)">
    <defs>
     <path id="Helvetica-77" d="M 672 3347 
L 1316 709 
L 1969 3347 
L 2600 3347 
L 3256 725 
L 3941 3347 
L 4503 3347 
L 3531 0 
L 2947 0 
L 2266 2591 
L 1606 0 
L 1022 0 
L 56 3347 
L 672 3347 
z
" transform="scale(0.015625)"/>
    </defs>
    <use xlink:href="#Helvetica-77"/>
    <use xlink:href="#Helvetica-6f" transform="translate(72.216797 0)"/>
    <use xlink:href="#Helvetica-72" transform="translate(127.832031 0)"/>
    <use xlink:href="#Helvetica-64" transform="translate(161.132812 0)"/>
    <use xlink:href="#Helvetica-20" transform="translate(216.748047 0)"/>
    <use xlink:href="#Helvetica-72" transform="translate(244.53125 0)"/>
    <use xlink:href="#Helvetica-65" transform="translate(277.832031 0)"/>
    <use xlink:href="#Helvetica-61" transform="translate(333.447266 0)"/>
    <use xlink:href="#Helvetica-64" transform="translate(389.0625 0)"/>
    <use xlink:href="#Helvetica-69" transform="translate(444.677734 0)"/>
    <use xlink:href="#Helvetica-6e" transform="translate(466.894531 0)"/>
    <use xlink:href="#Helvetica-67" transform="translate(522.509766 0)"/>
   </g>
  </g>
 </g>
 <defs>
  <clipPath id="p6e7ccc3b15">
   <rect x="42.041375" y="21.7395" width="328.54375" height="291.083875"/>
  </clipPath>
  <clipPath id="p99d0ee67f7">
   <path d="M 385.409125 154.480594 
L 385.409125 138.640594 
L 401.249125 138.640594 
L 401.249125 154.480594 
"/>
  </clipPath>
  <clipPath id="p1b609f838c">
   <path d="M 385.409125 172.320594 
L 385.409125 156.480594 
L 401.249125 156.480594 
L 401.249125 172.320594 
"/>
  </clipPath>
  <clipPath id="p5e5ed8ba73">
   <path d="M 385.409125 190.160594 
L 385.409125 174.320594 
L 401.249125 174.320594 
L 401.249125 190.160594 
"/>
  </clipPath>
  <clipPath id="pf68b199eba">
   <path d="M 385.409125 208.000594 
L 385.409125 192.160594 
L 401.249125 192.160594 
L 401.249125 208.000594 
"/>
  </clipPath>
 </defs>
</svg>
